<svg xmlns="http://www.w3.org/2000/svg" xmlns:xlink="http://www.w3.org/1999/xlink" width="1080" zoomAndPan="magnify" viewBox="0 0 810 809.999993" height="1080" preserveAspectRatio="xMidYMid meet" version="1.0"><defs><g/><clipPath id="93d28e8b7b"><path d="M 158 381.207031 L 669 381.207031 L 669 552.207031 L 158 552.207031 Z M 158 381.207031 " clip-rule="nonzero"/></clipPath><clipPath id="fe7736d439"><path d="M 339 324.507812 L 372 324.507812 L 372 401 L 339 401 Z M 339 324.507812 " clip-rule="nonzero"/></clipPath><clipPath id="1c79c1893b"><path d="M 394 369 L 400.917969 369 L 400.917969 377 L 394 377 Z M 394 369 " clip-rule="nonzero"/></clipPath></defs><g clip-path="url(#93d28e8b7b)"><path fill="#000000" d="M 607.125 381.238281 C 613.316406 383.960938 619.003906 386.980469 624.382812 390.335938 C 629.96875 393.820312 635.183594 397.660156 640.234375 401.894531 C 643.863281 404.933594 647.253906 408.132812 650.367188 411.503906 C 653.628906 415.03125 656.539062 418.753906 659.058594 422.671875 C 677.316406 451.378906 667.175781 476.675781 644.683594 497.097656 C 631.035156 509.492188 612.582031 519.964844 593.066406 528.128906 C 573.695312 536.238281 553.273438 541.914062 535.648438 545.21875 C 519.53125 548.09375 502.886719 550.203125 485.898438 551.273438 C 474.902344 551.96875 463.761719 552.257812 452.554688 552.09375 C 425.089844 551.6875 397.214844 548.953125 369.816406 544.246094 C 347.820312 540.464844 326.164062 535.332031 305.25 529.042969 C 272.234375 519.109375 241.203125 506.265625 213.699219 491.144531 C 205.316406 486.511719 197.632812 481.429688 190.320312 476.015625 C 179.144531 467.742188 168.875 458.796875 158.164062 449.90625 C 169.546875 457.828125 180.523438 465.808594 192.289062 473.117188 C 199.851562 477.816406 207.710938 482.21875 216.238281 486.101562 C 244.242188 498.921875 275.582031 509.03125 308.550781 516.621094 C 329.300781 521.398438 350.664062 525.0625 372.261719 527.753906 C 399.003906 531.085938 426.054688 532.671875 452.679688 532.621094 C 463.480469 532.601562 474.207031 532.371094 484.816406 531.855469 C 501.136719 531.0625 517.175781 529.710938 532.726562 527.390625 C 549.457031 525.042969 568.867188 520.410156 587.515625 513.785156 C 605.996094 507.21875 623.71875 498.777344 637.144531 488.199219 C 657.578125 472.105469 667.8125 451.257812 654.101562 425.5625 C 652.066406 421.699219 649.648438 417.996094 646.894531 414.441406 C 644.183594 410.945312 641.191406 407.59375 637.964844 404.375 C 633.378906 399.804688 628.601562 395.609375 623.429688 391.722656 C 618.394531 387.941406 613.023438 384.46875 607.125 381.238281 Z M 607.125 381.238281 " fill-opacity="1" fill-rule="evenodd"/></g><g fill="#000000" fill-opacity="1"><g transform="translate(130.672314, 430.504491)"><g><path d="M -4.828125 -90.03125 C -11.117188 -96.070312 -14.265625 -102.5625 -14.265625 -109.5 C -14.265625 -114.894531 -12.53125 -119.585938 -9.0625 -123.578125 C -2.507812 -131.285156 6.675781 -135.140625 18.5 -135.140625 L 109.296875 -135.140625 C 114.953125 -135.265625 119.898438 -135.742188 124.140625 -136.578125 C 128.378906 -137.421875 131.082031 -138.097656 132.25 -138.609375 L 132.25 -105.0625 L 130.3125 -105.0625 L 130.3125 -107.375 C 130.3125 -113.15625 128.578125 -117.84375 125.109375 -121.4375 C 121.640625 -125.039062 116.945312 -126.910156 111.03125 -127.046875 L 85.015625 -127.046875 L 85.015625 -13.875 C 85.265625 -9.25 87.382812 -5.78125 91.375 -3.46875 C 93.175781 -2.4375 95.164062 -1.921875 97.34375 -1.921875 L 99.859375 -1.921875 L 99.859375 0 L 41.25 0 L 41.25 -1.921875 L 43.75 -1.921875 C 47.09375 -1.921875 49.953125 -3.078125 52.328125 -5.390625 C 54.710938 -7.710938 55.96875 -10.476562 56.09375 -13.6875 L 56.09375 -127.046875 L 18.5 -127.046875 C 13.226562 -127.046875 8.601562 -126.082031 4.625 -124.15625 C -3.476562 -120.300781 -7.53125 -114.257812 -7.53125 -106.03125 C -7.53125 -101.144531 -5.984375 -96.132812 -2.890625 -91 Z M -4.828125 -90.03125 "/></g></g></g><g fill="#000000" fill-opacity="1"><g transform="translate(265.227202, 430.504491)"><g><path d="M 155.765625 -75.375 C 156.148438 -71.519531 156.34375 -66.664062 156.34375 -60.8125 C 156.34375 -54.96875 155.1875 -47.835938 152.875 -39.421875 C 150.5625 -31.003906 146.382812 -23.582031 140.34375 -17.15625 C 128.007812 -3.914062 111.046875 2.703125 89.453125 2.703125 C 63.234375 2.703125 42.539062 -3.753906 27.375 -16.671875 C 12.207031 -29.585938 4.625 -46.488281 4.625 -67.375 C 4.625 -88.257812 12.300781 -105.191406 27.65625 -118.171875 C 43.019531 -131.148438 63.296875 -137.640625 88.484375 -137.640625 C 98.117188 -137.640625 107.304688 -136.675781 116.046875 -134.75 C 124.785156 -132.820312 132.050781 -130.316406 137.84375 -127.234375 L 138.21875 -94.078125 L 136.6875 -94.078125 C 134.5 -102.304688 130.832031 -109.179688 125.6875 -114.703125 C 116.4375 -124.597656 103.972656 -129.546875 88.296875 -129.546875 C 72.617188 -129.546875 59.988281 -123.953125 50.40625 -112.765625 C 40.832031 -101.585938 36.046875 -86.773438 36.046875 -68.328125 C 36.046875 -49.890625 41.023438 -34.882812 50.984375 -23.3125 C 60.953125 -11.75 74.675781 -5.773438 92.15625 -5.390625 C 111.039062 -5.390625 126.070312 -11.429688 137.25 -23.515625 C 148.4375 -35.597656 154.03125 -51.984375 154.03125 -72.671875 C 154.03125 -73.578125 154.03125 -74.476562 154.03125 -75.375 Z M 155.765625 -75.375 "/></g></g></g><g fill="#000000" fill-opacity="1"><g transform="translate(424.456911, 430.504491)"><g><path d="M -12.921875 -146.125 C -10.859375 -146.257812 -7.609375 -146.328125 -3.171875 -146.328125 C 1.253906 -146.328125 7.097656 -145.394531 14.359375 -143.53125 C 21.617188 -141.664062 28.332031 -138.738281 34.5 -134.75 C 40.675781 -130.769531 46.332031 -125.953125 51.46875 -120.296875 C 60.976562 -109.753906 68.429688 -97.09375 73.828125 -82.3125 C 81.546875 -104.289062 91.570312 -121.128906 103.90625 -132.828125 C 113.289062 -141.691406 123.640625 -146.125 134.953125 -146.125 C 135.460938 -146.125 135.972656 -146.125 136.484375 -146.125 L 136.484375 -144.203125 C 130.054688 -144.066406 123.40625 -140.691406 116.53125 -134.078125 C 109.65625 -127.460938 103.644531 -119.460938 98.5 -110.078125 C 93.363281 -100.691406 89.03125 -90.921875 85.5 -80.765625 C 81.96875 -70.617188 79.878906 -61.816406 79.234375 -54.359375 L 79.234375 -14.078125 C 79.234375 -10.859375 80.421875 -8.023438 82.796875 -5.578125 C 85.171875 -3.140625 88.097656 -1.921875 91.578125 -1.921875 L 94.078125 -1.921875 L 94.078125 0 L 35.46875 0 L 35.46875 -1.921875 L 37.984375 -1.921875 C 41.316406 -1.921875 44.171875 -3.109375 46.546875 -5.484375 C 48.929688 -7.867188 50.1875 -10.734375 50.3125 -14.078125 L 50.3125 -54.5625 C 48.769531 -68.4375 44.144531 -83.148438 36.4375 -98.703125 C 27.570312 -116.691406 17.609375 -129.476562 6.546875 -137.0625 C 0.128906 -141.5625 -6.359375 -143.941406 -12.921875 -144.203125 Z M -12.921875 -146.125 "/></g></g></g><g fill="#000000" fill-opacity="1"><g transform="translate(553.035859, 430.504491)"><g><path d="M 117.40625 -79.625 C 113.03125 -69.59375 104.929688 -62.648438 93.109375 -58.796875 C 89.640625 -57.640625 86.425781 -57.0625 83.46875 -57.0625 C 74.34375 -57.0625 66.179688 -59.441406 58.984375 -64.203125 L 58.984375 -66.125 C 68.628906 -65.863281 76.40625 -69.007812 82.3125 -75.5625 C 87.582031 -81.21875 90.21875 -88.609375 90.21875 -97.734375 C 90.21875 -111.742188 85.332031 -120.804688 75.5625 -124.921875 C 72.476562 -126.203125 69.078125 -126.84375 65.359375 -126.84375 L 52.4375 -126.84375 L 52.4375 -14.078125 C 52.4375 -10.734375 53.65625 -7.867188 56.09375 -5.484375 C 58.539062 -3.109375 61.4375 -1.921875 64.78125 -1.921875 L 67.28125 -1.921875 L 67.28125 0 L 8.671875 0 L 8.671875 -1.921875 L 11.1875 -1.921875 C 14.519531 -1.921875 17.375 -3.109375 19.75 -5.484375 C 22.132812 -7.867188 23.390625 -10.734375 23.515625 -14.078125 L 23.515625 -121.84375 C 23.003906 -126.207031 20.820312 -129.421875 16.96875 -131.484375 C 15.164062 -132.503906 13.238281 -133.015625 11.1875 -133.015625 L 8.671875 -133.015625 L 8.671875 -134.953125 L 73.0625 -134.953125 C 96.320312 -134.953125 111.234375 -127.5625 117.796875 -112.78125 C 119.847656 -107.894531 120.875 -102.460938 120.875 -96.484375 C 120.875 -90.503906 119.71875 -84.882812 117.40625 -79.625 Z M 117.40625 -79.625 "/></g></g></g><path fill="#000000" d="M 366.316406 364.4375 C 366.316406 368.253906 363.226562 371.347656 359.414062 371.347656 C 355.601562 371.347656 352.511719 368.253906 352.511719 364.4375 C 352.511719 360.625 355.601562 357.53125 359.414062 357.53125 C 363.226562 357.53125 366.316406 360.625 366.316406 364.4375 " fill-opacity="1" fill-rule="nonzero"/><path fill="#ffffff" d="M 357.941406 360.824219 C 357.941406 361.792969 357.15625 362.578125 356.1875 362.578125 C 355.222656 362.578125 354.4375 361.792969 354.4375 360.824219 C 354.4375 359.855469 355.222656 359.070312 356.1875 359.070312 C 357.15625 359.070312 357.941406 359.855469 357.941406 360.824219 " fill-opacity="1" fill-rule="nonzero"/><path fill="#000000" d="M 357.277344 332.355469 C 357.277344 334.632812 355.4375 336.476562 353.164062 336.476562 C 350.890625 336.476562 349.046875 334.632812 349.046875 332.355469 C 349.046875 330.082031 350.890625 328.238281 353.164062 328.238281 C 355.4375 328.238281 357.277344 330.082031 357.277344 332.355469 " fill-opacity="1" fill-rule="nonzero"/><g clip-path="url(#fe7736d439)"><path fill="#000000" d="M 351.035156 397.382812 C 344.007812 396.167969 340.953125 379.882812 344.210938 361.007812 C 345.867188 351.421875 348.832031 343.011719 352.273438 337.214844 C 351.117188 337.035156 350.097656 336.453125 349.355469 335.617188 C 345.933594 341.949219 343.023438 350.617188 341.335938 360.386719 C 337.71875 381.328125 341.109375 399.398438 348.90625 400.746094 C 354.792969 401.765625 361.511719 392.957031 366.003906 379.566406 C 361.964844 390.914062 356.152344 398.269531 351.035156 397.382812 Z M 362 324.910156 C 359.722656 324.515625 357.320312 325.59375 354.96875 327.839844 C 356.210938 328.375 357.1875 329.40625 357.648438 330.683594 C 359.394531 329.34375 361.152344 328.742188 362.835938 329.035156 C 368.214844 329.964844 371.265625 339.722656 370.941406 352.714844 C 371.585938 337.542969 368.175781 325.976562 362 324.910156 " fill-opacity="1" fill-rule="nonzero"/></g><path fill="#000000" d="M 358.535156 379.460938 C 338.222656 375.238281 323.027344 365.671875 324.597656 358.097656 C 326.171875 350.519531 343.914062 347.804688 364.230469 352.027344 C 381.636719 355.648438 395.28125 363.183594 397.84375 370.035156 C 395.316406 362.351562 380.023438 353.804688 360.4375 349.734375 C 337.894531 345.046875 318.207031 348.0625 316.464844 356.464844 C 314.71875 364.871094 331.578125 375.484375 354.117188 380.171875 C 374.769531 384.464844 393.019531 382.292969 397.28125 375.4375 C 393.164062 381.425781 376.902344 383.28125 358.535156 379.460938 " fill-opacity="1" fill-rule="nonzero"/><g clip-path="url(#1c79c1893b)"><path fill="#000000" d="M 400.867188 372.996094 C 400.867188 374.832031 399.378906 376.320312 397.546875 376.320312 C 395.714844 376.320312 394.226562 374.832031 394.226562 372.996094 C 394.226562 371.164062 395.714844 369.675781 397.546875 369.675781 C 399.378906 369.675781 400.867188 371.164062 400.867188 372.996094 " fill-opacity="1" fill-rule="nonzero"/></g><path fill="#000000" d="M 349.035156 355.785156 C 366.386719 344.394531 383.886719 340.40625 388.128906 346.875 C 392.367188 353.34375 381.742188 367.824219 364.390625 379.214844 C 349.527344 388.972656 334.554688 393.296875 327.902344 390.265625 C 335.121094 393.910156 351.972656 389.132812 368.695312 378.152344 C 387.945312 365.515625 399.738281 349.449219 395.035156 342.269531 C 390.328125 335.09375 370.90625 339.519531 351.65625 352.15625 C 334.023438 363.734375 322.648438 378.183594 324.484375 386.046875 C 323.160156 378.902344 333.351562 366.082031 349.035156 355.785156 " fill-opacity="1" fill-rule="nonzero"/><path fill="#000000" d="M 330.472656 387.996094 C 330.472656 390.316406 328.59375 392.195312 326.273438 392.195312 C 323.957031 392.195312 322.074219 390.316406 322.074219 387.996094 C 322.074219 385.675781 323.957031 383.792969 326.273438 383.792969 C 328.59375 383.792969 330.472656 385.675781 330.472656 387.996094 " fill-opacity="1" fill-rule="nonzero"/><path fill="#ffffff" d="M 325.769531 386.742188 C 325.769531 387.5 325.15625 388.113281 324.398438 388.113281 C 323.640625 388.113281 323.027344 387.5 323.027344 386.742188 C 323.027344 385.984375 323.640625 385.367188 324.398438 385.367188 C 325.15625 385.367188 325.769531 385.984375 325.769531 386.742188 " fill-opacity="1" fill-rule="nonzero"/><path fill="#ffffff" d="M 396.816406 371.75 C 396.816406 372.1875 396.460938 372.542969 396.023438 372.542969 C 395.585938 372.542969 395.230469 372.1875 395.230469 371.75 C 395.230469 371.3125 395.585938 370.957031 396.023438 370.957031 C 396.460938 370.957031 396.816406 371.3125 396.816406 371.75 " fill-opacity="1" fill-rule="nonzero"/><path fill="#ffffff" d="M 352.308594 330.582031 C 352.308594 331.214844 351.792969 331.726562 351.164062 331.726562 C 350.53125 331.726562 350.015625 331.214844 350.015625 330.582031 C 350.015625 329.949219 350.53125 329.433594 351.164062 329.433594 C 351.792969 329.433594 352.308594 329.949219 352.308594 330.582031 " fill-opacity="1" fill-rule="nonzero"/><g fill="#000000" fill-opacity="1"><g transform="translate(178.301985, 456.798192)"><g><path d="M -0.609375 -11.4375 C -1.410156 -12.195312 -1.8125 -13.019531 -1.8125 -13.90625 C -1.8125 -14.59375 -1.585938 -15.1875 -1.140625 -15.6875 C -0.304688 -16.664062 0.859375 -17.15625 2.359375 -17.15625 L 13.890625 -17.15625 C 14.609375 -17.175781 15.234375 -17.238281 15.765625 -17.34375 C 16.304688 -17.445312 16.648438 -17.535156 16.796875 -17.609375 L 16.796875 -13.34375 L 16.5625 -13.34375 L 16.5625 -13.640625 C 16.5625 -14.367188 16.335938 -14.960938 15.890625 -15.421875 C 15.453125 -15.878906 14.859375 -16.117188 14.109375 -16.140625 L 10.796875 -16.140625 L 10.796875 -1.765625 C 10.835938 -1.171875 11.109375 -0.726562 11.609375 -0.4375 C 11.835938 -0.3125 12.09375 -0.25 12.375 -0.25 L 12.6875 -0.25 L 12.6875 0 L 5.25 0 L 5.25 -0.25 L 5.5625 -0.25 C 5.988281 -0.25 6.351562 -0.394531 6.65625 -0.6875 C 6.957031 -0.976562 7.113281 -1.328125 7.125 -1.734375 L 7.125 -16.140625 L 2.359375 -16.140625 C 1.691406 -16.140625 1.101562 -16.015625 0.59375 -15.765625 C -0.4375 -15.273438 -0.953125 -14.507812 -0.953125 -13.46875 C -0.953125 -12.84375 -0.753906 -12.207031 -0.359375 -11.5625 Z M -0.609375 -11.4375 "/></g></g></g><g fill="#000000" fill-opacity="1"><g transform="translate(195.380767, 456.798192)"><g><path d="M 7.78125 -16.0625 L 6.734375 -16.0625 C 6.703125 -16.0625 6.675781 -16.0625 6.65625 -16.0625 L 6.65625 -1.78125 C 6.675781 -1.175781 6.9375 -0.726562 7.4375 -0.4375 C 7.6875 -0.3125 7.953125 -0.25 8.234375 -0.25 L 8.546875 -0.25 L 8.546875 0 L 1.109375 0 L 1.109375 -0.25 L 1.421875 -0.25 C 2.003906 -0.25 2.453125 -0.5 2.765625 -1 C 2.898438 -1.226562 2.972656 -1.484375 2.984375 -1.765625 L 2.984375 -15.359375 C 2.972656 -15.773438 2.816406 -16.132812 2.515625 -16.4375 C 2.210938 -16.738281 1.847656 -16.890625 1.421875 -16.890625 L 1.109375 -16.890625 L 1.109375 -17.140625 L 9.5 -17.140625 C 11.082031 -17.140625 12.421875 -16.796875 13.515625 -16.109375 C 14.066406 -15.765625 14.503906 -15.285156 14.828125 -14.671875 C 15.160156 -14.066406 15.328125 -13.375 15.328125 -12.59375 C 15.328125 -11.820312 15.191406 -11.109375 14.921875 -10.453125 C 14.648438 -9.796875 14.203125 -9.222656 13.578125 -8.734375 C 12.953125 -8.242188 12.195312 -7.953125 11.3125 -7.859375 C 12.257812 -7.546875 13.09375 -6.828125 13.8125 -5.703125 C 15.570312 -2.878906 16.878906 -1.195312 17.734375 -0.65625 C 18.148438 -0.394531 18.675781 -0.257812 19.3125 -0.25 L 19.3125 0 L 16.921875 0 C 15.535156 0 14.375 -0.191406 13.4375 -0.578125 C 12.507812 -0.960938 11.753906 -1.617188 11.171875 -2.546875 C 10.867188 -3.015625 10.488281 -3.726562 10.03125 -4.6875 C 9.582031 -5.644531 9.28125 -6.328125 9.125 -6.734375 C 8.6875 -7.710938 8.132812 -8.257812 7.46875 -8.375 L 7.46875 -8.625 L 8.234375 -8.625 C 8.960938 -8.625 9.609375 -8.84375 10.171875 -9.28125 C 10.734375 -9.71875 11.113281 -10.4375 11.3125 -11.4375 C 11.375 -11.78125 11.40625 -12.050781 11.40625 -12.25 C 11.40625 -13.582031 11.132812 -14.546875 10.59375 -15.140625 C 10.0625 -15.734375 9.367188 -16.039062 8.515625 -16.0625 C 8.359375 -16.0625 8.113281 -16.0625 7.78125 -16.0625 Z M 7.78125 -16.0625 "/></g></g></g><g fill="#000000" fill-opacity="1"><g transform="translate(213.634028, 456.798192)"><g><path d="M 1.34375 -0.25 C 1.769531 -0.25 2.132812 -0.398438 2.4375 -0.703125 C 2.738281 -1.003906 2.894531 -1.363281 2.90625 -1.78125 L 2.90625 -15.375 C 2.894531 -15.800781 2.738281 -16.160156 2.4375 -16.453125 C 2.132812 -16.742188 1.769531 -16.890625 1.34375 -16.890625 L 1.03125 -16.890625 L 1.03125 -17.140625 L 8.46875 -17.140625 L 8.453125 -16.890625 L 8.15625 -16.890625 C 7.726562 -16.890625 7.359375 -16.742188 7.046875 -16.453125 C 6.742188 -16.160156 6.59375 -15.800781 6.59375 -15.375 L 6.59375 -1.78125 C 6.59375 -1.363281 6.742188 -1.003906 7.046875 -0.703125 C 7.359375 -0.398438 7.726562 -0.25 8.15625 -0.25 L 8.453125 -0.25 L 8.46875 0 L 1.03125 0 L 1.03125 -0.25 Z M 1.34375 -0.25 "/></g></g></g><g fill="#000000" fill-opacity="1"><g transform="translate(223.07875, 456.798192)"><g><path d="M 0.78125 -7.15625 L 0.984375 -7.953125 L 8.328125 -7.953125 L 8.515625 -7.15625 L 8.328125 -6.3125 L 0.984375 -6.3125 Z M 0.78125 -7.15625 "/></g></g></g><g fill="#000000" fill-opacity="1"><g transform="translate(232.376658, 456.798192)"><g><path d="M 19.78125 -9.578125 C 19.832031 -9.085938 19.859375 -8.46875 19.859375 -7.71875 C 19.859375 -6.976562 19.707031 -6.070312 19.40625 -5 C 19.113281 -3.9375 18.585938 -2.992188 17.828125 -2.171875 C 16.253906 -0.492188 14.097656 0.34375 11.359375 0.34375 C 8.023438 0.34375 5.394531 -0.472656 3.46875 -2.109375 C 1.550781 -3.753906 0.59375 -5.898438 0.59375 -8.546875 C 0.59375 -11.203125 1.566406 -13.351562 3.515625 -15 C 5.460938 -16.65625 8.035156 -17.484375 11.234375 -17.484375 C 12.460938 -17.484375 13.628906 -17.359375 14.734375 -17.109375 C 15.847656 -16.867188 16.769531 -16.550781 17.5 -16.15625 L 17.5625 -11.953125 L 17.359375 -11.953125 C 17.078125 -12.992188 16.613281 -13.863281 15.96875 -14.5625 C 14.789062 -15.820312 13.207031 -16.453125 11.21875 -16.453125 C 9.226562 -16.453125 7.625 -15.738281 6.40625 -14.3125 C 5.1875 -12.894531 4.578125 -11.015625 4.578125 -8.671875 C 4.578125 -6.335938 5.207031 -4.4375 6.46875 -2.96875 C 7.738281 -1.5 9.484375 -0.738281 11.703125 -0.6875 C 14.097656 -0.6875 16.003906 -1.453125 17.421875 -2.984375 C 18.847656 -4.515625 19.5625 -6.597656 19.5625 -9.234375 C 19.5625 -9.347656 19.5625 -9.460938 19.5625 -9.578125 Z M 19.78125 -9.578125 "/></g></g></g><g fill="#000000" fill-opacity="1"><g transform="translate(252.587366, 456.798192)"><g><path d="M 12.953125 -0.25 C 13.378906 -0.25 13.707031 -0.351562 13.9375 -0.5625 C 14.3125 -0.9375 14.503906 -1.335938 14.515625 -1.765625 L 14.515625 -8 L 6.59375 -8 L 6.59375 -1.78125 C 6.59375 -1.363281 6.742188 -1.003906 7.046875 -0.703125 C 7.359375 -0.398438 7.726562 -0.25 8.15625 -0.25 L 8.453125 -0.25 L 8.46875 0 L 1.03125 0 L 1.03125 -0.25 L 1.34375 -0.25 C 1.769531 -0.25 2.132812 -0.398438 2.4375 -0.703125 C 2.738281 -1.003906 2.894531 -1.363281 2.90625 -1.78125 L 2.90625 -15.375 C 2.894531 -15.800781 2.738281 -16.160156 2.4375 -16.453125 C 2.132812 -16.742188 1.769531 -16.890625 1.34375 -16.890625 L 1.03125 -16.890625 L 1.03125 -17.140625 L 8.46875 -17.140625 L 8.453125 -16.890625 L 8.15625 -16.890625 C 7.726562 -16.890625 7.359375 -16.742188 7.046875 -16.453125 C 6.742188 -16.160156 6.59375 -15.800781 6.59375 -15.375 L 6.59375 -9.0625 L 14.515625 -9.0625 L 14.515625 -15.375 C 14.503906 -15.800781 14.347656 -16.160156 14.046875 -16.453125 C 13.742188 -16.742188 13.378906 -16.890625 12.953125 -16.890625 L 12.640625 -16.890625 L 12.640625 -17.140625 L 20.078125 -17.140625 L 20.078125 -16.890625 L 19.765625 -16.890625 C 19.335938 -16.890625 18.96875 -16.738281 18.65625 -16.4375 C 18.34375 -16.132812 18.1875 -15.773438 18.1875 -15.359375 L 18.1875 -1.78125 C 18.1875 -1.363281 18.34375 -1.003906 18.65625 -0.703125 C 18.96875 -0.398438 19.335938 -0.25 19.765625 -0.25 L 20.078125 -0.25 L 20.078125 0 L 12.640625 0 L 12.640625 -0.25 Z M 12.953125 -0.25 "/></g></g></g><g fill="#000000" fill-opacity="1"><g transform="translate(273.654463, 456.798192)"><g><path d="M 18.078125 -0.25 L 18.296875 -0.25 L 18.296875 0 L 10.484375 0 L 10.484375 -0.25 L 10.703125 -0.25 C 11.066406 -0.25 11.332031 -0.359375 11.5 -0.578125 C 11.675781 -0.796875 11.765625 -1.003906 11.765625 -1.203125 C 11.765625 -1.398438 11.722656 -1.59375 11.640625 -1.78125 L 10.4375 -4.796875 L 4.703125 -4.796875 L 3.4375 -1.78125 C 3.351562 -1.570312 3.3125 -1.375 3.3125 -1.1875 C 3.3125 -1 3.394531 -0.796875 3.5625 -0.578125 C 3.738281 -0.359375 4.015625 -0.25 4.390625 -0.25 L 4.578125 -0.25 L 4.578125 0 L -0.65625 0 L -0.65625 -0.25 L -0.4375 -0.25 C -0.0625 -0.25 0.3125 -0.363281 0.6875 -0.59375 C 1.0625 -0.820312 1.375 -1.160156 1.625 -1.609375 L 7.28125 -14.421875 C 8.039062 -16.035156 8.445312 -17.101562 8.5 -17.625 L 8.71875 -17.625 L 16 -1.671875 C 16.238281 -1.191406 16.546875 -0.832031 16.921875 -0.59375 C 17.296875 -0.363281 17.679688 -0.25 18.078125 -0.25 Z M 5.125 -5.828125 L 10.015625 -5.828125 L 7.640625 -11.84375 Z M 5.125 -5.828125 "/></g></g></g><g fill="#000000" fill-opacity="1"><g transform="translate(291.17367, 456.798192)"><g><path d="M 20 -16.890625 C 19.59375 -16.890625 19.242188 -16.742188 18.953125 -16.453125 C 18.660156 -16.171875 18.503906 -15.828125 18.484375 -15.421875 L 18.484375 -2.796875 C 18.484375 -1.703125 18.554688 -0.78125 18.703125 -0.03125 L 18.78125 0.34375 L 18.5625 0.34375 L 6.1875 -11.4375 L 6.1875 -1.71875 C 6.1875 -1.3125 6.332031 -0.960938 6.625 -0.671875 C 6.925781 -0.390625 7.28125 -0.25 7.6875 -0.25 L 8.15625 -0.25 L 8.15625 0 L 0.734375 0 L 0.734375 -0.25 L 1.171875 -0.25 C 1.597656 -0.25 1.957031 -0.390625 2.25 -0.671875 C 2.539062 -0.960938 2.6875 -1.316406 2.6875 -1.734375 L 2.6875 -14.453125 C 2.6875 -15.523438 2.613281 -16.421875 2.46875 -17.140625 L 2.421875 -17.5 L 2.640625 -17.5 L 15.015625 -5.734375 L 15.015625 -15.40625 C 14.992188 -15.820312 14.835938 -16.171875 14.546875 -16.453125 C 14.253906 -16.742188 13.898438 -16.890625 13.484375 -16.890625 L 13.046875 -16.890625 L 13.046875 -17.140625 L 20.46875 -17.140625 L 20.46875 -16.890625 Z M 20 -16.890625 "/></g></g></g><g fill="#000000" fill-opacity="1"><g transform="translate(312.338638, 456.798192)"><g><path d="M 9.921875 -17.140625 C 12.804688 -17.140625 15.085938 -16.367188 16.765625 -14.828125 C 18.453125 -13.296875 19.296875 -11.207031 19.296875 -8.5625 C 19.296875 -5.925781 18.453125 -3.835938 16.765625 -2.296875 C 15.085938 -0.765625 12.804688 0 9.921875 0 L 1.03125 0 L 1.03125 -0.25 L 1.34375 -0.25 C 1.769531 -0.25 2.132812 -0.398438 2.4375 -0.703125 C 2.738281 -1.003906 2.894531 -1.363281 2.90625 -1.78125 L 2.90625 -15.5 C 2.863281 -15.894531 2.691406 -16.222656 2.390625 -16.484375 C 2.097656 -16.753906 1.75 -16.890625 1.34375 -16.890625 L 1.03125 -16.890625 L 1.03125 -17.140625 Z M 9.59375 -1.03125 C 10.769531 -1.03125 11.785156 -1.332031 12.640625 -1.9375 C 13.503906 -2.550781 14.160156 -3.425781 14.609375 -4.5625 C 15.066406 -5.695312 15.296875 -7.03125 15.296875 -8.5625 C 15.296875 -10.882812 14.785156 -12.722656 13.765625 -14.078125 C 12.753906 -15.429688 11.363281 -16.109375 9.59375 -16.109375 L 6.59375 -16.109375 L 6.59375 -1.03125 Z M 9.59375 -1.03125 "/></g></g></g><g fill="#000000" fill-opacity="1"><g transform="translate(332.598289, 456.798192)"><g><path d="M 7.78125 -16.0625 L 6.734375 -16.0625 C 6.703125 -16.0625 6.675781 -16.0625 6.65625 -16.0625 L 6.65625 -1.78125 C 6.675781 -1.175781 6.9375 -0.726562 7.4375 -0.4375 C 7.6875 -0.3125 7.953125 -0.25 8.234375 -0.25 L 8.546875 -0.25 L 8.546875 0 L 1.109375 0 L 1.109375 -0.25 L 1.421875 -0.25 C 2.003906 -0.25 2.453125 -0.5 2.765625 -1 C 2.898438 -1.226562 2.972656 -1.484375 2.984375 -1.765625 L 2.984375 -15.359375 C 2.972656 -15.773438 2.816406 -16.132812 2.515625 -16.4375 C 2.210938 -16.738281 1.847656 -16.890625 1.421875 -16.890625 L 1.109375 -16.890625 L 1.109375 -17.140625 L 9.5 -17.140625 C 11.082031 -17.140625 12.421875 -16.796875 13.515625 -16.109375 C 14.066406 -15.765625 14.503906 -15.285156 14.828125 -14.671875 C 15.160156 -14.066406 15.328125 -13.375 15.328125 -12.59375 C 15.328125 -11.820312 15.191406 -11.109375 14.921875 -10.453125 C 14.648438 -9.796875 14.203125 -9.222656 13.578125 -8.734375 C 12.953125 -8.242188 12.195312 -7.953125 11.3125 -7.859375 C 12.257812 -7.546875 13.09375 -6.828125 13.8125 -5.703125 C 15.570312 -2.878906 16.878906 -1.195312 17.734375 -0.65625 C 18.148438 -0.394531 18.675781 -0.257812 19.3125 -0.25 L 19.3125 0 L 16.921875 0 C 15.535156 0 14.375 -0.191406 13.4375 -0.578125 C 12.507812 -0.960938 11.753906 -1.617188 11.171875 -2.546875 C 10.867188 -3.015625 10.488281 -3.726562 10.03125 -4.6875 C 9.582031 -5.644531 9.28125 -6.328125 9.125 -6.734375 C 8.6875 -7.710938 8.132812 -8.257812 7.46875 -8.375 L 7.46875 -8.625 L 8.234375 -8.625 C 8.960938 -8.625 9.609375 -8.84375 10.171875 -9.28125 C 10.734375 -9.71875 11.113281 -10.4375 11.3125 -11.4375 C 11.375 -11.78125 11.40625 -12.050781 11.40625 -12.25 C 11.40625 -13.582031 11.132812 -14.546875 10.59375 -15.140625 C 10.0625 -15.734375 9.367188 -16.039062 8.515625 -16.0625 C 8.359375 -16.0625 8.113281 -16.0625 7.78125 -16.0625 Z M 7.78125 -16.0625 "/></g></g></g><g fill="#000000" fill-opacity="1"><g transform="translate(350.85155, 456.798192)"><g><path d="M 18.078125 -0.25 L 18.296875 -0.25 L 18.296875 0 L 10.484375 0 L 10.484375 -0.25 L 10.703125 -0.25 C 11.066406 -0.25 11.332031 -0.359375 11.5 -0.578125 C 11.675781 -0.796875 11.765625 -1.003906 11.765625 -1.203125 C 11.765625 -1.398438 11.722656 -1.59375 11.640625 -1.78125 L 10.4375 -4.796875 L 4.703125 -4.796875 L 3.4375 -1.78125 C 3.351562 -1.570312 3.3125 -1.375 3.3125 -1.1875 C 3.3125 -1 3.394531 -0.796875 3.5625 -0.578125 C 3.738281 -0.359375 4.015625 -0.25 4.390625 -0.25 L 4.578125 -0.25 L 4.578125 0 L -0.65625 0 L -0.65625 -0.25 L -0.4375 -0.25 C -0.0625 -0.25 0.3125 -0.363281 0.6875 -0.59375 C 1.0625 -0.820312 1.375 -1.160156 1.625 -1.609375 L 7.28125 -14.421875 C 8.039062 -16.035156 8.445312 -17.101562 8.5 -17.625 L 8.71875 -17.625 L 16 -1.671875 C 16.238281 -1.191406 16.546875 -0.832031 16.921875 -0.59375 C 17.296875 -0.363281 17.679688 -0.25 18.078125 -0.25 Z M 5.125 -5.828125 L 10.015625 -5.828125 L 7.640625 -11.84375 Z M 5.125 -5.828125 "/></g></g></g><g fill="#000000" fill-opacity="1"><g transform="translate(368.370758, 456.798192)"><g/></g></g><g fill="#000000" fill-opacity="1"><g transform="translate(374.487797, 456.798192)"><g><path d="M 26.5625 4.15625 C 25.289062 4.800781 23.9375 5.125 22.5 5.125 C 21.226562 5.125 20.070312 4.925781 19.03125 4.53125 C 16.769531 3.695312 14.847656 2.070312 13.265625 -0.34375 C 12.859375 -0.925781 12.097656 -2.050781 10.984375 -3.71875 C 9.878906 -5.382812 9.164062 -6.445312 8.84375 -6.90625 C 8.269531 -7.800781 7.8125 -8.289062 7.46875 -8.375 L 7.46875 -8.625 C 7.488281 -8.625 7.507812 -8.625 7.53125 -8.625 C 7.550781 -8.625 7.578125 -8.625 7.609375 -8.625 C 7.640625 -8.625 7.671875 -8.625 7.703125 -8.625 C 7.742188 -8.625 7.785156 -8.625 7.828125 -8.625 C 7.878906 -8.625 7.921875 -8.625 7.953125 -8.625 C 8.785156 -8.625 9.554688 -8.8125 10.265625 -9.1875 C 11.316406 -9.769531 11.84375 -10.851562 11.84375 -12.4375 C 11.84375 -13.59375 11.515625 -14.484375 10.859375 -15.109375 C 10.210938 -15.742188 9.429688 -16.0625 8.515625 -16.0625 L 6.65625 -16.0625 L 6.65625 -1.78125 C 6.65625 -1.363281 6.8125 -1.003906 7.125 -0.703125 C 7.4375 -0.398438 7.804688 -0.25 8.234375 -0.25 L 8.546875 -0.25 L 8.546875 0 L 1.109375 0 L 1.109375 -0.25 L 1.421875 -0.25 C 1.828125 -0.25 2.1875 -0.394531 2.5 -0.6875 C 2.8125 -0.976562 2.972656 -1.335938 2.984375 -1.765625 L 2.984375 -15.359375 C 2.972656 -15.773438 2.816406 -16.132812 2.515625 -16.4375 C 2.210938 -16.738281 1.847656 -16.890625 1.421875 -16.890625 L 1.109375 -16.890625 L 1.109375 -17.140625 L 9.5 -17.140625 C 11.601562 -17.140625 13.234375 -16.65625 14.390625 -15.6875 C 15.304688 -14.9375 15.765625 -13.875 15.765625 -12.5 C 15.765625 -11.132812 15.316406 -10.023438 14.421875 -9.171875 C 13.535156 -8.316406 12.523438 -7.890625 11.390625 -7.890625 C 11.285156 -7.890625 11.175781 -7.894531 11.0625 -7.90625 C 11.738281 -7.550781 12.300781 -7.148438 12.75 -6.703125 C 13.195312 -6.265625 13.585938 -5.847656 13.921875 -5.453125 C 14.253906 -5.066406 14.535156 -4.722656 14.765625 -4.421875 C 15.003906 -4.117188 15.320312 -3.71875 15.71875 -3.21875 C 16.113281 -2.71875 16.519531 -2.195312 16.9375 -1.65625 C 17.363281 -1.125 17.832031 -0.578125 18.34375 -0.015625 C 18.863281 0.546875 19.4375 1.078125 20.0625 1.578125 C 20.6875 2.085938 21.328125 2.507812 21.984375 2.84375 C 23.367188 3.539062 24.894531 3.898438 26.5625 3.921875 Z M 26.5625 4.15625 "/></g></g></g><g fill="#000000" fill-opacity="1"><g transform="translate(392.374038, 456.798192)"><g><path d="M 1.34375 -0.25 C 1.769531 -0.25 2.132812 -0.398438 2.4375 -0.703125 C 2.738281 -1.003906 2.894531 -1.363281 2.90625 -1.78125 L 2.90625 -15.421875 C 2.863281 -15.992188 2.597656 -16.421875 2.109375 -16.703125 C 1.859375 -16.828125 1.601562 -16.890625 1.34375 -16.890625 L 1.03125 -16.890625 L 1.03125 -17.140625 L 10.40625 -17.140625 C 10.914062 -17.140625 11.472656 -17.1875 12.078125 -17.28125 C 12.679688 -17.382812 13.101562 -17.484375 13.34375 -17.578125 L 13.34375 -13.296875 L 13.09375 -13.296875 L 13.09375 -13.59375 C 13.09375 -14.320312 12.875 -14.910156 12.4375 -15.359375 C 12.007812 -15.804688 11.429688 -16.050781 10.703125 -16.09375 L 6.59375 -16.09375 L 6.59375 -8.96875 L 9.8125 -8.96875 C 10.414062 -8.976562 10.914062 -9.179688 11.3125 -9.578125 C 11.707031 -9.984375 11.90625 -10.476562 11.90625 -11.0625 L 11.90625 -11.28125 L 12.140625 -11.28125 L 12.140625 -5.625 L 11.90625 -5.625 L 11.90625 -5.828125 C 11.90625 -6.640625 11.578125 -7.242188 10.921875 -7.640625 C 10.597656 -7.816406 10.238281 -7.914062 9.84375 -7.9375 L 6.59375 -7.9375 L 6.59375 -1.046875 L 9.796875 -1.046875 C 10.984375 -1.046875 11.976562 -1.390625 12.78125 -2.078125 C 13.59375 -2.765625 14.195312 -3.738281 14.59375 -5 L 14.84375 -5 L 13.71875 0 L 1.03125 0 L 1.03125 -0.25 Z M 1.34375 -0.25 "/></g></g></g><g fill="#000000" fill-opacity="1"><g transform="translate(407.81345, 456.798192)"><g><path d="M 1.21875 -2.28125 C 1.21875 -3.457031 1.472656 -4.457031 1.984375 -5.28125 L 2.203125 -5.28125 C 2.179688 -5.15625 2.171875 -5.023438 2.171875 -4.890625 C 2.171875 -3.765625 2.578125 -2.78125 3.390625 -1.9375 C 4.203125 -1.101562 5.304688 -0.6875 6.703125 -0.6875 C 7.796875 -0.6875 8.648438 -0.945312 9.265625 -1.46875 C 9.878906 -1.988281 10.1875 -2.648438 10.1875 -3.453125 C 10.1875 -4.410156 9.535156 -5.25 8.234375 -5.96875 L 3.96875 -8.796875 C 3.113281 -9.285156 2.503906 -9.875 2.140625 -10.5625 C 1.773438 -11.257812 1.59375 -11.96875 1.59375 -12.6875 C 1.59375 -14.21875 2.078125 -15.398438 3.046875 -16.234375 C 4.015625 -17.066406 5.257812 -17.484375 6.78125 -17.484375 C 7.675781 -17.484375 8.785156 -17.398438 10.109375 -17.234375 L 11.65625 -17.234375 L 11.34375 -13.640625 L 11.09375 -13.640625 C 11.09375 -14.484375 10.773438 -15.160156 10.140625 -15.671875 C 9.515625 -16.191406 8.679688 -16.453125 7.640625 -16.453125 C 6.367188 -16.453125 5.445312 -16.0625 4.875 -15.28125 C 4.582031 -14.90625 4.4375 -14.476562 4.4375 -14 C 4.4375 -13.21875 5.003906 -12.492188 6.140625 -11.828125 L 10.828125 -8.796875 C 12.296875 -7.941406 13.03125 -6.691406 13.03125 -5.046875 C 13.03125 -3.296875 12.4375 -1.957031 11.25 -1.03125 C 10.0625 -0.113281 8.488281 0.34375 6.53125 0.34375 C 5.425781 0.34375 4.40625 0.207031 3.46875 -0.0625 C 2.53125 -0.332031 1.835938 -0.695312 1.390625 -1.15625 C 1.273438 -1.457031 1.21875 -1.832031 1.21875 -2.28125 Z M 1.21875 -2.28125 "/></g></g></g><g fill="#000000" fill-opacity="1"><g transform="translate(421.956062, 456.798192)"><g><path d="M 1.34375 -0.25 C 1.769531 -0.25 2.132812 -0.398438 2.4375 -0.703125 C 2.738281 -1.003906 2.894531 -1.363281 2.90625 -1.78125 L 2.90625 -15.421875 C 2.863281 -15.992188 2.597656 -16.421875 2.109375 -16.703125 C 1.859375 -16.828125 1.601562 -16.890625 1.34375 -16.890625 L 1.03125 -16.890625 L 1.03125 -17.140625 L 10.40625 -17.140625 C 10.914062 -17.140625 11.472656 -17.1875 12.078125 -17.28125 C 12.679688 -17.382812 13.101562 -17.484375 13.34375 -17.578125 L 13.34375 -13.296875 L 13.09375 -13.296875 L 13.09375 -13.59375 C 13.09375 -14.320312 12.875 -14.910156 12.4375 -15.359375 C 12.007812 -15.804688 11.429688 -16.050781 10.703125 -16.09375 L 6.59375 -16.09375 L 6.59375 -8.96875 L 9.8125 -8.96875 C 10.414062 -8.976562 10.914062 -9.179688 11.3125 -9.578125 C 11.707031 -9.984375 11.90625 -10.476562 11.90625 -11.0625 L 11.90625 -11.28125 L 12.140625 -11.28125 L 12.140625 -5.625 L 11.90625 -5.625 L 11.90625 -5.828125 C 11.90625 -6.640625 11.578125 -7.242188 10.921875 -7.640625 C 10.597656 -7.816406 10.238281 -7.914062 9.84375 -7.9375 L 6.59375 -7.9375 L 6.59375 -1.046875 L 9.796875 -1.046875 C 10.984375 -1.046875 11.976562 -1.390625 12.78125 -2.078125 C 13.59375 -2.765625 14.195312 -3.738281 14.59375 -5 L 14.84375 -5 L 13.71875 0 L 1.03125 0 L 1.03125 -0.25 Z M 1.34375 -0.25 "/></g></g></g><g fill="#000000" fill-opacity="1"><g transform="translate(437.395459, 456.798192)"><g><path d="M 18.078125 -0.25 L 18.296875 -0.25 L 18.296875 0 L 10.484375 0 L 10.484375 -0.25 L 10.703125 -0.25 C 11.066406 -0.25 11.332031 -0.359375 11.5 -0.578125 C 11.675781 -0.796875 11.765625 -1.003906 11.765625 -1.203125 C 11.765625 -1.398438 11.722656 -1.59375 11.640625 -1.78125 L 10.4375 -4.796875 L 4.703125 -4.796875 L 3.4375 -1.78125 C 3.351562 -1.570312 3.3125 -1.375 3.3125 -1.1875 C 3.3125 -1 3.394531 -0.796875 3.5625 -0.578125 C 3.738281 -0.359375 4.015625 -0.25 4.390625 -0.25 L 4.578125 -0.25 L 4.578125 0 L -0.65625 0 L -0.65625 -0.25 L -0.4375 -0.25 C -0.0625 -0.25 0.3125 -0.363281 0.6875 -0.59375 C 1.0625 -0.820312 1.375 -1.160156 1.625 -1.609375 L 7.28125 -14.421875 C 8.039062 -16.035156 8.445312 -17.101562 8.5 -17.625 L 8.71875 -17.625 L 16 -1.671875 C 16.238281 -1.191406 16.546875 -0.832031 16.921875 -0.59375 C 17.296875 -0.363281 17.679688 -0.25 18.078125 -0.25 Z M 5.125 -5.828125 L 10.015625 -5.828125 L 7.640625 -11.84375 Z M 5.125 -5.828125 "/></g></g></g><g fill="#000000" fill-opacity="1"><g transform="translate(454.914652, 456.798192)"><g><path d="M 7.78125 -16.0625 L 6.734375 -16.0625 C 6.703125 -16.0625 6.675781 -16.0625 6.65625 -16.0625 L 6.65625 -1.78125 C 6.675781 -1.175781 6.9375 -0.726562 7.4375 -0.4375 C 7.6875 -0.3125 7.953125 -0.25 8.234375 -0.25 L 8.546875 -0.25 L 8.546875 0 L 1.109375 0 L 1.109375 -0.25 L 1.421875 -0.25 C 2.003906 -0.25 2.453125 -0.5 2.765625 -1 C 2.898438 -1.226562 2.972656 -1.484375 2.984375 -1.765625 L 2.984375 -15.359375 C 2.972656 -15.773438 2.816406 -16.132812 2.515625 -16.4375 C 2.210938 -16.738281 1.847656 -16.890625 1.421875 -16.890625 L 1.109375 -16.890625 L 1.109375 -17.140625 L 9.5 -17.140625 C 11.082031 -17.140625 12.421875 -16.796875 13.515625 -16.109375 C 14.066406 -15.765625 14.503906 -15.285156 14.828125 -14.671875 C 15.160156 -14.066406 15.328125 -13.375 15.328125 -12.59375 C 15.328125 -11.820312 15.191406 -11.109375 14.921875 -10.453125 C 14.648438 -9.796875 14.203125 -9.222656 13.578125 -8.734375 C 12.953125 -8.242188 12.195312 -7.953125 11.3125 -7.859375 C 12.257812 -7.546875 13.09375 -6.828125 13.8125 -5.703125 C 15.570312 -2.878906 16.878906 -1.195312 17.734375 -0.65625 C 18.148438 -0.394531 18.675781 -0.257812 19.3125 -0.25 L 19.3125 0 L 16.921875 0 C 15.535156 0 14.375 -0.191406 13.4375 -0.578125 C 12.507812 -0.960938 11.753906 -1.617188 11.171875 -2.546875 C 10.867188 -3.015625 10.488281 -3.726562 10.03125 -4.6875 C 9.582031 -5.644531 9.28125 -6.328125 9.125 -6.734375 C 8.6875 -7.710938 8.132812 -8.257812 7.46875 -8.375 L 7.46875 -8.625 L 8.234375 -8.625 C 8.960938 -8.625 9.609375 -8.84375 10.171875 -9.28125 C 10.734375 -9.71875 11.113281 -10.4375 11.3125 -11.4375 C 11.375 -11.78125 11.40625 -12.050781 11.40625 -12.25 C 11.40625 -13.582031 11.132812 -14.546875 10.59375 -15.140625 C 10.0625 -15.734375 9.367188 -16.039062 8.515625 -16.0625 C 8.359375 -16.0625 8.113281 -16.0625 7.78125 -16.0625 Z M 7.78125 -16.0625 "/></g></g></g><g fill="#000000" fill-opacity="1"><g transform="translate(473.167913, 456.798192)"><g><path d="M 11.203125 0.328125 C 8.054688 0.316406 5.585938 -0.476562 3.796875 -2.0625 C 2.003906 -3.644531 1.109375 -5.8125 1.109375 -8.5625 C 1.109375 -11.320312 1.992188 -13.5 3.765625 -15.09375 C 5.546875 -16.6875 7.988281 -17.484375 11.09375 -17.484375 C 13.457031 -17.484375 15.488281 -17.039062 17.1875 -16.15625 L 17.234375 -11.953125 L 17.046875 -11.953125 C 16.210938 -14.953125 14.3125 -16.453125 11.34375 -16.453125 C 9.414062 -16.453125 7.890625 -15.753906 6.765625 -14.359375 C 5.648438 -12.960938 5.09375 -11.054688 5.09375 -8.640625 C 5.09375 -6.222656 5.625 -4.304688 6.6875 -2.890625 C 7.757812 -1.472656 9.210938 -0.738281 11.046875 -0.6875 C 12.929688 -0.6875 14.375 -1.160156 15.375 -2.109375 C 16.382812 -3.085938 17.085938 -4.769531 17.484375 -7.15625 L 17.671875 -7.15625 L 17.921875 -2.9375 C 16.597656 -0.75 14.359375 0.335938 11.203125 0.328125 Z M 11.203125 0.328125 "/></g></g></g><g fill="#000000" fill-opacity="1"><g transform="translate(492.253069, 456.798192)"><g><path d="M 12.953125 -0.25 C 13.378906 -0.25 13.707031 -0.351562 13.9375 -0.5625 C 14.3125 -0.9375 14.503906 -1.335938 14.515625 -1.765625 L 14.515625 -8 L 6.59375 -8 L 6.59375 -1.78125 C 6.59375 -1.363281 6.742188 -1.003906 7.046875 -0.703125 C 7.359375 -0.398438 7.726562 -0.25 8.15625 -0.25 L 8.453125 -0.25 L 8.46875 0 L 1.03125 0 L 1.03125 -0.25 L 1.34375 -0.25 C 1.769531 -0.25 2.132812 -0.398438 2.4375 -0.703125 C 2.738281 -1.003906 2.894531 -1.363281 2.90625 -1.78125 L 2.90625 -15.375 C 2.894531 -15.800781 2.738281 -16.160156 2.4375 -16.453125 C 2.132812 -16.742188 1.769531 -16.890625 1.34375 -16.890625 L 1.03125 -16.890625 L 1.03125 -17.140625 L 8.46875 -17.140625 L 8.453125 -16.890625 L 8.15625 -16.890625 C 7.726562 -16.890625 7.359375 -16.742188 7.046875 -16.453125 C 6.742188 -16.160156 6.59375 -15.800781 6.59375 -15.375 L 6.59375 -9.0625 L 14.515625 -9.0625 L 14.515625 -15.375 C 14.503906 -15.800781 14.347656 -16.160156 14.046875 -16.453125 C 13.742188 -16.742188 13.378906 -16.890625 12.953125 -16.890625 L 12.640625 -16.890625 L 12.640625 -17.140625 L 20.078125 -17.140625 L 20.078125 -16.890625 L 19.765625 -16.890625 C 19.335938 -16.890625 18.96875 -16.738281 18.65625 -16.4375 C 18.34375 -16.132812 18.1875 -15.773438 18.1875 -15.359375 L 18.1875 -1.78125 C 18.1875 -1.363281 18.34375 -1.003906 18.65625 -0.703125 C 18.96875 -0.398438 19.335938 -0.25 19.765625 -0.25 L 20.078125 -0.25 L 20.078125 0 L 12.640625 0 L 12.640625 -0.25 Z M 12.953125 -0.25 "/></g></g></g><g fill="#000000" fill-opacity="1"><g transform="translate(513.320166, 456.798192)"><g/></g></g><g fill="#000000" fill-opacity="1"><g transform="translate(519.437205, 456.798192)"><g><path d="M 23.375 4.84375 C 22.96875 4.84375 22.570312 4.8125 22.1875 4.75 C 20.601562 4.5 19.253906 3.894531 18.140625 2.9375 C 17.035156 1.988281 16.238281 0.804688 15.75 -0.609375 C 14.207031 0.0234375 12.546875 0.34375 10.765625 0.34375 C 7.828125 0.34375 5.421875 -0.488281 3.546875 -2.15625 C 1.671875 -3.820312 0.734375 -5.957031 0.734375 -8.5625 C 0.734375 -10.3125 1.160156 -11.863281 2.015625 -13.21875 C 2.878906 -14.570312 4.082031 -15.617188 5.625 -16.359375 C 7.175781 -17.109375 8.945312 -17.484375 10.9375 -17.484375 C 12.25 -17.484375 13.515625 -17.351562 14.734375 -17.09375 C 15.960938 -16.84375 16.953125 -16.53125 17.703125 -16.15625 L 17.75 -11.953125 L 17.5625 -11.953125 C 17.164062 -13.429688 16.40625 -14.550781 15.28125 -15.3125 C 14.164062 -16.070312 12.828125 -16.453125 11.265625 -16.453125 C 9.335938 -16.453125 7.765625 -15.710938 6.546875 -14.234375 C 5.328125 -12.753906 4.71875 -10.851562 4.71875 -8.53125 C 4.71875 -6.207031 5.3125 -4.316406 6.5 -2.859375 C 7.695312 -1.410156 9.234375 -0.6875 11.109375 -0.6875 C 12.128906 -0.6875 13.007812 -0.90625 13.75 -1.34375 C 14.488281 -1.78125 14.988281 -2.367188 15.25 -3.109375 L 15.25 -6.828125 C 15.25 -7.191406 15.140625 -7.46875 14.921875 -7.65625 C 14.710938 -7.851562 14.414062 -7.953125 14.03125 -7.953125 L 13.640625 -7.953125 L 13.640625 -8.203125 L 20.515625 -8.203125 L 20.515625 -7.953125 L 20.15625 -7.953125 C 19.738281 -7.953125 19.425781 -7.851562 19.21875 -7.65625 C 19.007812 -7.46875 18.910156 -7.203125 18.921875 -6.859375 L 18.921875 -2.96875 C 18.941406 -1.882812 19.144531 -0.878906 19.53125 0.046875 C 20.40625 2.035156 21.84375 3.273438 23.84375 3.765625 C 24.382812 3.898438 24.941406 3.96875 25.515625 3.96875 C 26.097656 3.96875 26.691406 3.898438 27.296875 3.765625 L 27.34375 4.015625 C 25.945312 4.566406 24.625 4.84375 23.375 4.84375 Z M 23.375 4.84375 "/></g></g></g><g fill="#000000" fill-opacity="1"><g transform="translate(540.504302, 456.798192)"><g><path d="M 7.78125 -16.0625 L 6.734375 -16.0625 C 6.703125 -16.0625 6.675781 -16.0625 6.65625 -16.0625 L 6.65625 -1.78125 C 6.675781 -1.175781 6.9375 -0.726562 7.4375 -0.4375 C 7.6875 -0.3125 7.953125 -0.25 8.234375 -0.25 L 8.546875 -0.25 L 8.546875 0 L 1.109375 0 L 1.109375 -0.25 L 1.421875 -0.25 C 2.003906 -0.25 2.453125 -0.5 2.765625 -1 C 2.898438 -1.226562 2.972656 -1.484375 2.984375 -1.765625 L 2.984375 -15.359375 C 2.972656 -15.773438 2.816406 -16.132812 2.515625 -16.4375 C 2.210938 -16.738281 1.847656 -16.890625 1.421875 -16.890625 L 1.109375 -16.890625 L 1.109375 -17.140625 L 9.5 -17.140625 C 11.082031 -17.140625 12.421875 -16.796875 13.515625 -16.109375 C 14.066406 -15.765625 14.503906 -15.285156 14.828125 -14.671875 C 15.160156 -14.066406 15.328125 -13.375 15.328125 -12.59375 C 15.328125 -11.820312 15.191406 -11.109375 14.921875 -10.453125 C 14.648438 -9.796875 14.203125 -9.222656 13.578125 -8.734375 C 12.953125 -8.242188 12.195312 -7.953125 11.3125 -7.859375 C 12.257812 -7.546875 13.09375 -6.828125 13.8125 -5.703125 C 15.570312 -2.878906 16.878906 -1.195312 17.734375 -0.65625 C 18.148438 -0.394531 18.675781 -0.257812 19.3125 -0.25 L 19.3125 0 L 16.921875 0 C 15.535156 0 14.375 -0.191406 13.4375 -0.578125 C 12.507812 -0.960938 11.753906 -1.617188 11.171875 -2.546875 C 10.867188 -3.015625 10.488281 -3.726562 10.03125 -4.6875 C 9.582031 -5.644531 9.28125 -6.328125 9.125 -6.734375 C 8.6875 -7.710938 8.132812 -8.257812 7.46875 -8.375 L 7.46875 -8.625 L 8.234375 -8.625 C 8.960938 -8.625 9.609375 -8.84375 10.171875 -9.28125 C 10.734375 -9.71875 11.113281 -10.4375 11.3125 -11.4375 C 11.375 -11.78125 11.40625 -12.050781 11.40625 -12.25 C 11.40625 -13.582031 11.132812 -14.546875 10.59375 -15.140625 C 10.0625 -15.734375 9.367188 -16.039062 8.515625 -16.0625 C 8.359375 -16.0625 8.113281 -16.0625 7.78125 -16.0625 Z M 7.78125 -16.0625 "/></g></g></g><g fill="#000000" fill-opacity="1"><g transform="translate(558.757563, 456.798192)"><g><path d="M 10.765625 -17.484375 C 13.785156 -17.484375 16.1875 -16.679688 17.96875 -15.078125 C 19.75 -13.484375 20.640625 -11.3125 20.640625 -8.5625 C 20.640625 -5.820312 19.75 -3.648438 17.96875 -2.046875 C 16.1875 -0.453125 13.785156 0.34375 10.765625 0.34375 C 7.753906 0.34375 5.359375 -0.453125 3.578125 -2.046875 C 1.796875 -3.648438 0.90625 -5.820312 0.90625 -8.5625 C 0.90625 -10.375 1.304688 -11.953125 2.109375 -13.296875 C 2.921875 -14.648438 4.066406 -15.6875 5.546875 -16.40625 C 7.035156 -17.125 8.773438 -17.484375 10.765625 -17.484375 Z M 6.5 -2.796875 C 7.550781 -1.390625 8.972656 -0.6875 10.765625 -0.6875 C 12.566406 -0.6875 13.992188 -1.390625 15.046875 -2.796875 C 16.097656 -4.210938 16.625 -6.132812 16.625 -8.5625 C 16.625 -10.164062 16.382812 -11.5625 15.90625 -12.75 C 15.4375 -13.945312 14.757812 -14.863281 13.875 -15.5 C 13 -16.132812 11.960938 -16.453125 10.765625 -16.453125 C 8.972656 -16.453125 7.550781 -15.742188 6.5 -14.328125 C 5.445312 -12.921875 4.921875 -11 4.921875 -8.5625 C 4.921875 -6.132812 5.445312 -4.210938 6.5 -2.796875 Z M 6.5 -2.796875 "/></g></g></g><g fill="#000000" fill-opacity="1"><g transform="translate(580.2651, 456.798192)"><g><path d="M 19.34375 -16.890625 L 18.921875 -16.890625 C 18.578125 -16.890625 18.28125 -16.78125 18.03125 -16.5625 C 17.78125 -16.34375 17.65625 -16.070312 17.65625 -15.75 L 17.65625 -6.1875 C 17.65625 -4.1875 17.023438 -2.597656 15.765625 -1.421875 C 14.503906 -0.242188 12.785156 0.34375 10.609375 0.34375 C 8.023438 0.34375 6.046875 -0.226562 4.671875 -1.375 C 3.304688 -2.53125 2.625 -4.128906 2.625 -6.171875 L 2.625 -15.671875 C 2.625 -16.023438 2.492188 -16.316406 2.234375 -16.546875 C 1.984375 -16.773438 1.679688 -16.890625 1.328125 -16.890625 L 0.9375 -16.890625 L 0.9375 -17.140625 L 7.984375 -17.140625 L 7.984375 -16.890625 L 7.59375 -16.890625 C 7.226562 -16.890625 6.921875 -16.78125 6.671875 -16.5625 C 6.429688 -16.34375 6.304688 -16.0625 6.296875 -15.71875 L 6.296875 -6.359375 C 6.296875 -4.628906 6.71875 -3.257812 7.5625 -2.25 C 8.414062 -1.238281 9.582031 -0.734375 11.0625 -0.734375 C 12.550781 -0.734375 13.726562 -1.207031 14.59375 -2.15625 C 15.457031 -3.113281 15.898438 -4.410156 15.921875 -6.046875 L 15.921875 -15.71875 C 15.921875 -16.0625 15.789062 -16.34375 15.53125 -16.5625 C 15.28125 -16.78125 14.972656 -16.890625 14.609375 -16.890625 L 14.21875 -16.890625 L 14.21875 -17.140625 L 19.34375 -17.140625 Z M 19.34375 -16.890625 "/></g></g></g><g fill="#000000" fill-opacity="1"><g transform="translate(600.353488, 456.798192)"><g><path d="M 14.90625 -10.109375 C 14.351562 -8.835938 13.328125 -7.957031 11.828125 -7.46875 C 11.390625 -7.320312 10.984375 -7.25 10.609375 -7.25 C 9.441406 -7.25 8.40625 -7.550781 7.5 -8.15625 L 7.5 -8.390625 C 8.71875 -8.359375 9.703125 -8.757812 10.453125 -9.59375 C 11.117188 -10.3125 11.453125 -11.25 11.453125 -12.40625 C 11.453125 -14.1875 10.832031 -15.335938 9.59375 -15.859375 C 9.207031 -16.023438 8.773438 -16.109375 8.296875 -16.109375 L 6.65625 -16.109375 L 6.65625 -1.78125 C 6.65625 -1.363281 6.8125 -1.003906 7.125 -0.703125 C 7.4375 -0.398438 7.804688 -0.25 8.234375 -0.25 L 8.546875 -0.25 L 8.546875 0 L 1.109375 0 L 1.109375 -0.25 L 1.421875 -0.25 C 1.847656 -0.25 2.210938 -0.398438 2.515625 -0.703125 C 2.816406 -1.003906 2.972656 -1.363281 2.984375 -1.78125 L 2.984375 -15.46875 C 2.921875 -16.03125 2.644531 -16.441406 2.15625 -16.703125 C 1.925781 -16.828125 1.679688 -16.890625 1.421875 -16.890625 L 1.109375 -16.890625 L 1.109375 -17.140625 L 9.28125 -17.140625 C 12.238281 -17.140625 14.128906 -16.203125 14.953125 -14.328125 C 15.222656 -13.703125 15.359375 -13.007812 15.359375 -12.25 C 15.359375 -11.488281 15.207031 -10.773438 14.90625 -10.109375 Z M 14.90625 -10.109375 "/></g></g></g><g fill="#000000" fill-opacity="1"><g transform="translate(355.116578, 490.988587)"><g><path d="M 6.109375 -13.84375 C 7.816406 -13.84375 9.203125 -13.488281 10.265625 -12.78125 C 11.335938 -12.082031 11.875 -11.125 11.875 -9.90625 C 11.875 -8.957031 11.523438 -8.054688 10.828125 -7.203125 C 10.316406 -6.566406 9.859375 -6.082031 9.453125 -5.75 C 9.046875 -5.425781 8.734375 -5.175781 8.515625 -5 C 8.304688 -4.832031 8.003906 -4.617188 7.609375 -4.359375 C 7.222656 -4.109375 6.941406 -3.925781 6.765625 -3.8125 C 6.597656 -3.695312 6.320312 -3.519531 5.9375 -3.28125 C 5.5625 -3.050781 5.328125 -2.910156 5.234375 -2.859375 L 9.8125 -2.859375 C 10.46875 -2.859375 11.007812 -3.007812 11.4375 -3.3125 C 11.875 -3.613281 12.289062 -4.109375 12.6875 -4.796875 L 12.90625 -4.796875 L 11.578125 0 L 0.96875 0 L 0.96875 -0.203125 C 1.34375 -0.585938 1.863281 -1.113281 2.53125 -1.78125 C 3.195312 -2.445312 3.753906 -3.007812 4.203125 -3.46875 C 4.660156 -3.925781 5.171875 -4.476562 5.734375 -5.125 C 6.304688 -5.78125 6.757812 -6.363281 7.09375 -6.875 C 7.914062 -8.113281 8.328125 -9.203125 8.328125 -10.140625 C 8.328125 -11.078125 8.070312 -11.785156 7.5625 -12.265625 C 7.0625 -12.742188 6.40625 -12.984375 5.59375 -12.984375 C 4.5 -12.984375 3.675781 -12.644531 3.125 -11.96875 C 2.570312 -11.300781 2.296875 -10.382812 2.296875 -9.21875 L 2.078125 -9.21875 L 1.046875 -12.40625 C 1.585938 -12.84375 2.328125 -13.191406 3.265625 -13.453125 C 4.203125 -13.710938 5.148438 -13.84375 6.109375 -13.84375 Z M 6.109375 -13.84375 "/></g></g></g><g fill="#000000" fill-opacity="1"><g transform="translate(368.731156, 490.988587)"><g><path d="M 2.75 -11.703125 C 3.9375 -12.953125 5.550781 -13.578125 7.59375 -13.578125 C 9.644531 -13.578125 11.265625 -12.953125 12.453125 -11.703125 C 13.640625 -10.460938 14.234375 -8.769531 14.234375 -6.625 C 14.234375 -4.488281 13.640625 -2.796875 12.453125 -1.546875 C 11.265625 -0.304688 9.648438 0.3125 7.609375 0.3125 C 6.253906 0.3125 5.070312 0.03125 4.0625 -0.53125 C 3.0625 -1.09375 2.296875 -1.894531 1.765625 -2.9375 C 1.234375 -3.988281 0.96875 -5.21875 0.96875 -6.625 C 0.96875 -8.769531 1.5625 -10.460938 2.75 -11.703125 Z M 9.3125 -11.921875 C 8.820312 -12.398438 8.25 -12.640625 7.59375 -12.640625 C 6.945312 -12.640625 6.382812 -12.398438 5.90625 -11.921875 C 4.90625 -10.910156 4.40625 -9.144531 4.40625 -6.625 C 4.40625 -4.769531 4.691406 -3.304688 5.265625 -2.234375 C 5.835938 -1.160156 6.617188 -0.625 7.609375 -0.625 C 8.597656 -0.625 9.378906 -1.160156 9.953125 -2.234375 C 10.535156 -3.304688 10.828125 -4.769531 10.828125 -6.625 C 10.828125 -9.144531 10.320312 -10.910156 9.3125 -11.921875 Z M 9.3125 -11.921875 "/></g></g></g><g fill="#000000" fill-opacity="1"><g transform="translate(383.937046, 490.988587)"><g><path d="M 2.5625 -0.59375 C 2.03125 -0.90625 1.613281 -1.320312 1.3125 -1.84375 C 1.007812 -2.363281 0.859375 -2.960938 0.859375 -3.640625 C 0.859375 -5.398438 1.921875 -6.675781 4.046875 -7.46875 C 2.515625 -8.59375 1.75 -9.941406 1.75 -11.515625 C 1.75 -12.796875 2.195312 -13.828125 3.09375 -14.609375 C 4.007812 -15.390625 5.171875 -15.78125 6.578125 -15.78125 C 7.984375 -15.78125 9.15625 -15.4375 10.09375 -14.75 C 11.03125 -14.070312 11.5 -13.171875 11.5 -12.046875 C 11.5 -11.503906 11.363281 -11.003906 11.09375 -10.546875 C 10.613281 -9.691406 9.78125 -9.101562 8.59375 -8.78125 C 9.65625 -8.226562 10.316406 -7.847656 10.578125 -7.640625 C 10.835938 -7.441406 11.070312 -7.242188 11.28125 -7.046875 C 11.5 -6.859375 11.664062 -6.664062 11.78125 -6.46875 C 11.90625 -6.28125 12.023438 -6.070312 12.140625 -5.84375 C 12.359375 -5.394531 12.46875 -4.847656 12.46875 -4.203125 C 12.46875 -2.785156 11.914062 -1.675781 10.8125 -0.875 C 9.71875 -0.0820312 8.332031 0.3125 6.65625 0.3125 C 4.976562 0.3125 3.613281 0.0078125 2.5625 -0.59375 Z M 7.65625 -9.265625 C 8.300781 -9.984375 8.625 -10.960938 8.625 -12.203125 C 8.625 -12.992188 8.4375 -13.628906 8.0625 -14.109375 C 7.6875 -14.585938 7.1875 -14.828125 6.5625 -14.828125 C 5.945312 -14.828125 5.460938 -14.617188 5.109375 -14.203125 C 4.765625 -13.796875 4.59375 -13.269531 4.59375 -12.625 C 4.59375 -11.976562 4.804688 -11.414062 5.234375 -10.9375 C 5.679688 -10.457031 6.488281 -9.898438 7.65625 -9.265625 Z M 6.546875 -0.625 C 7.398438 -0.625 8.082031 -0.847656 8.59375 -1.296875 C 9.101562 -1.742188 9.359375 -2.3125 9.359375 -3 C 9.359375 -3.695312 9.101562 -4.269531 8.59375 -4.71875 C 8.082031 -5.164062 7.40625 -5.609375 6.5625 -6.046875 C 5.726562 -6.484375 5.15625 -6.789062 4.84375 -6.96875 C 4.132812 -6.21875 3.78125 -5.28125 3.78125 -4.15625 C 3.78125 -3.03125 4.015625 -2.164062 4.484375 -1.5625 C 5.015625 -0.9375 5.703125 -0.625 6.546875 -0.625 Z M 6.546875 -0.625 "/></g></g></g><g fill="#000000" fill-opacity="1"><g transform="translate(397.264297, 490.988587)"><g><path d="M 6.109375 -13.84375 C 7.816406 -13.84375 9.203125 -13.488281 10.265625 -12.78125 C 11.335938 -12.082031 11.875 -11.125 11.875 -9.90625 C 11.875 -8.957031 11.523438 -8.054688 10.828125 -7.203125 C 10.316406 -6.566406 9.859375 -6.082031 9.453125 -5.75 C 9.046875 -5.425781 8.734375 -5.175781 8.515625 -5 C 8.304688 -4.832031 8.003906 -4.617188 7.609375 -4.359375 C 7.222656 -4.109375 6.941406 -3.925781 6.765625 -3.8125 C 6.597656 -3.695312 6.320312 -3.519531 5.9375 -3.28125 C 5.5625 -3.050781 5.328125 -2.910156 5.234375 -2.859375 L 9.8125 -2.859375 C 10.46875 -2.859375 11.007812 -3.007812 11.4375 -3.3125 C 11.875 -3.613281 12.289062 -4.109375 12.6875 -4.796875 L 12.90625 -4.796875 L 11.578125 0 L 0.96875 0 L 0.96875 -0.203125 C 1.34375 -0.585938 1.863281 -1.113281 2.53125 -1.78125 C 3.195312 -2.445312 3.753906 -3.007812 4.203125 -3.46875 C 4.660156 -3.925781 5.171875 -4.476562 5.734375 -5.125 C 6.304688 -5.78125 6.757812 -6.363281 7.09375 -6.875 C 7.914062 -8.113281 8.328125 -9.203125 8.328125 -10.140625 C 8.328125 -11.078125 8.070312 -11.785156 7.5625 -12.265625 C 7.0625 -12.742188 6.40625 -12.984375 5.59375 -12.984375 C 4.5 -12.984375 3.675781 -12.644531 3.125 -11.96875 C 2.570312 -11.300781 2.296875 -10.382812 2.296875 -9.21875 L 2.078125 -9.21875 L 1.046875 -12.40625 C 1.585938 -12.84375 2.328125 -13.191406 3.265625 -13.453125 C 4.203125 -13.710938 5.148438 -13.84375 6.109375 -13.84375 Z M 6.109375 -13.84375 "/></g></g></g><g fill="#000000" fill-opacity="1"><g transform="translate(410.878875, 490.988587)"><g/></g></g><g fill="#000000" fill-opacity="1"><g transform="translate(416.404265, 490.988587)"><g><path d="M 7.9375 0 L 0.921875 0 L 0.921875 -0.21875 L 1.21875 -0.21875 C 1.601562 -0.21875 1.929688 -0.347656 2.203125 -0.609375 C 2.472656 -0.878906 2.613281 -1.207031 2.625 -1.59375 L 2.625 -13.890625 C 2.613281 -14.265625 2.472656 -14.582031 2.203125 -14.84375 C 1.929688 -15.113281 1.601562 -15.25 1.21875 -15.25 L 0.921875 -15.25 L 0.921875 -15.46875 L 7.34375 -15.46875 C 9.050781 -15.46875 10.410156 -15.160156 11.421875 -14.546875 C 12.429688 -13.929688 12.941406 -12.984375 12.953125 -11.703125 C 12.941406 -11.046875 12.800781 -10.476562 12.53125 -10 C 12.050781 -9.082031 11.285156 -8.554688 10.234375 -8.421875 C 11.367188 -8.316406 12.304688 -7.890625 13.046875 -7.140625 C 13.785156 -6.398438 14.15625 -5.457031 14.15625 -4.3125 C 14.15625 -2.925781 13.597656 -1.859375 12.484375 -1.109375 C 11.367188 -0.367188 9.851562 0 7.9375 0 Z M 9.421875 -11.40625 C 9.398438 -13.488281 8.457031 -14.53125 6.59375 -14.53125 L 5.953125 -14.53125 L 5.953125 -1.015625 L 6.96875 -1.015625 C 6.976562 -1.015625 6.992188 -1.015625 7.015625 -1.015625 C 8.023438 -1.015625 8.832031 -1.304688 9.4375 -1.890625 C 10.039062 -2.484375 10.34375 -3.378906 10.34375 -4.578125 C 10.34375 -5.421875 10.175781 -6.113281 9.84375 -6.65625 C 9.207031 -7.675781 8.160156 -8.1875 6.703125 -8.1875 L 6.703125 -8.375 C 7.460938 -8.375 8.097656 -8.617188 8.609375 -9.109375 C 9.128906 -9.609375 9.398438 -10.375 9.421875 -11.40625 Z M 9.421875 -11.40625 "/></g></g></g><g fill="#000000" fill-opacity="1"><g transform="translate(431.278631, 490.988587)"><g><path d="M 3.59375 -0.234375 C 3.28125 0.0664062 2.898438 0.21875 2.453125 0.21875 C 2.015625 0.21875 1.640625 0.0664062 1.328125 -0.234375 C 1.015625 -0.546875 0.859375 -0.921875 0.859375 -1.359375 C 0.859375 -1.804688 1.015625 -2.1875 1.328125 -2.5 C 1.640625 -2.820312 2.015625 -2.984375 2.453125 -2.984375 C 2.898438 -2.984375 3.28125 -2.820312 3.59375 -2.5 C 3.90625 -2.1875 4.0625 -1.804688 4.0625 -1.359375 C 4.0625 -0.921875 3.90625 -0.546875 3.59375 -0.234375 Z M 3.59375 -0.234375 "/></g></g></g><g fill="#000000" fill-opacity="1"><g transform="translate(436.185182, 490.988587)"><g><path d="M 2.078125 -6.28125 C 1.484375 -5.332031 1.1875 -4.363281 1.1875 -3.375 C 1.1875 -2.300781 1.578125 -1.320312 2.359375 -0.4375 C 2.785156 0.0625 3.328125 0.453125 3.984375 0.734375 C 4.640625 1.015625 5.359375 1.15625 6.140625 1.15625 C 6.921875 1.15625 7.625 1.003906 8.25 0.703125 C 9.488281 0.0976562 10.109375 -0.882812 10.109375 -2.25 C 10.109375 -2.769531 9.929688 -3.316406 9.578125 -3.890625 C 9.234375 -4.460938 8.71875 -4.976562 8.03125 -5.4375 L 4.265625 -7.953125 C 2.804688 -8.867188 2.078125 -10.050781 2.078125 -11.5 C 2.078125 -11.644531 2.082031 -11.789062 2.09375 -11.9375 C 2.1875 -13.070312 2.640625 -13.992188 3.453125 -14.703125 C 4.273438 -15.421875 5.375 -15.78125 6.75 -15.78125 C 7.582031 -15.78125 8.597656 -15.707031 9.796875 -15.5625 L 11.171875 -15.5625 L 10.875 -12.3125 L 10.671875 -12.3125 C 10.660156 -13.082031 10.367188 -13.695312 9.796875 -14.15625 C 9.222656 -14.625 8.460938 -14.859375 7.515625 -14.859375 C 6.367188 -14.859375 5.535156 -14.507812 5.015625 -13.8125 C 4.765625 -13.457031 4.640625 -13.070312 4.640625 -12.65625 C 4.640625 -12.25 4.765625 -11.898438 5.015625 -11.609375 C 5.265625 -11.328125 5.664062 -11.015625 6.21875 -10.671875 L 10.34375 -7.984375 C 11.1875 -7.429688 11.84375 -6.789062 12.3125 -6.0625 C 12.875 -5.1875 13.15625 -4.289062 13.15625 -3.375 C 13.15625 -2.789062 13.03125 -2.171875 12.78125 -1.515625 C 12.539062 -0.859375 12.144531 -0.25 11.59375 0.3125 C 11.039062 0.875 10.328125 1.328125 9.453125 1.671875 C 8.585938 2.023438 7.628906 2.203125 6.578125 2.203125 C 5.523438 2.203125 4.570312 2.019531 3.71875 1.65625 C 2.132812 0.988281 1.128906 -0.164062 0.703125 -1.8125 C 0.617188 -2.164062 0.578125 -2.535156 0.578125 -2.921875 C 0.578125 -4.160156 1.007812 -5.332031 1.875 -6.4375 Z M 2.078125 -6.28125 "/></g></g></g><g fill="#000000" fill-opacity="1"><g transform="translate(449.954461, 490.988587)"><g><path d="M 3.59375 -0.234375 C 3.28125 0.0664062 2.898438 0.21875 2.453125 0.21875 C 2.015625 0.21875 1.640625 0.0664062 1.328125 -0.234375 C 1.015625 -0.546875 0.859375 -0.921875 0.859375 -1.359375 C 0.859375 -1.804688 1.015625 -2.1875 1.328125 -2.5 C 1.640625 -2.820312 2.015625 -2.984375 2.453125 -2.984375 C 2.898438 -2.984375 3.28125 -2.820312 3.59375 -2.5 C 3.90625 -2.1875 4.0625 -1.804688 4.0625 -1.359375 C 4.0625 -0.921875 3.90625 -0.546875 3.59375 -0.234375 Z M 3.59375 -0.234375 "/></g></g></g></svg>