<svg xmlns="http://www.w3.org/2000/svg" xmlns:xlink="http://www.w3.org/1999/xlink" width="1080" zoomAndPan="magnify" viewBox="0 0 810 809.999993" height="1080" preserveAspectRatio="xMidYMid meet" version="1.0"><defs><g/><clipPath id="ba85e228fa"><path d="M 77 412.375 L 775 412.375 L 775 646.375 L 77 646.375 Z M 77 412.375 " clip-rule="nonzero"/></clipPath><clipPath id="97cacbfb0b"><path d="M 400 396 L 409.550781 396 L 409.550781 406 L 400 406 Z M 400 396 " clip-rule="nonzero"/></clipPath></defs><g clip-path="url(#ba85e228fa)"><path fill="#000000" d="M 690.667969 412.417969 C 699.125 416.148438 706.894531 420.277344 714.242188 424.867188 C 721.875 429.636719 728.996094 434.890625 735.898438 440.683594 C 740.851562 444.84375 745.484375 449.222656 749.738281 453.835938 C 754.191406 458.664062 758.167969 463.753906 761.609375 469.117188 C 786.550781 508.40625 772.699219 543.019531 741.972656 570.964844 C 723.332031 587.925781 698.121094 602.253906 671.464844 613.429688 C 645.003906 624.523438 617.105469 632.292969 593.03125 636.816406 C 571.011719 640.746094 548.277344 643.636719 525.074219 645.101562 C 510.050781 646.050781 494.832031 646.449219 479.523438 646.222656 C 442.007812 645.664062 403.925781 641.925781 366.5 635.484375 C 336.453125 630.308594 306.871094 623.285156 278.304688 614.675781 C 233.203125 601.089844 190.816406 583.507812 153.246094 562.820312 C 141.792969 556.476562 131.296875 549.523438 121.308594 542.113281 C 106.042969 530.796875 92.011719 518.550781 77.382812 506.386719 C 92.933594 517.230469 107.925781 528.144531 124 538.148438 C 134.328125 544.578125 145.0625 550.605469 156.714844 555.914062 C 194.96875 573.460938 237.777344 587.292969 282.8125 597.683594 C 311.15625 604.222656 340.339844 609.234375 369.84375 612.914062 C 406.371094 617.472656 443.324219 619.644531 479.695312 619.574219 C 494.449219 619.546875 509.101562 619.234375 523.59375 618.53125 C 545.890625 617.445312 567.796875 615.59375 589.039062 612.414062 C 611.894531 609.207031 638.410156 602.867188 663.878906 593.800781 C 689.125 584.816406 713.335938 573.261719 731.675781 558.789062 C 759.585938 536.765625 773.566406 508.234375 754.839844 473.074219 C 752.058594 467.789062 748.753906 462.722656 744.992188 457.855469 C 741.289062 453.074219 737.203125 448.488281 732.792969 444.082031 C 726.53125 437.824219 720.003906 432.082031 712.941406 426.765625 C 706.0625 421.59375 698.722656 416.839844 690.667969 412.417969 Z M 690.667969 412.417969 " fill-opacity="1" fill-rule="evenodd"/></g><g fill="#000000" fill-opacity="1"><g transform="translate(39.853009, 479.681425)"><g><path d="M -6.578125 -122.90625 C -15.171875 -131.15625 -19.46875 -140.015625 -19.46875 -149.484375 C -19.46875 -156.859375 -17.101562 -163.265625 -12.375 -168.703125 C -3.414062 -179.234375 9.128906 -184.5 25.265625 -184.5 L 149.234375 -184.5 C 156.953125 -184.664062 163.707031 -185.316406 169.5 -186.453125 C 175.289062 -187.597656 178.972656 -188.523438 180.546875 -189.234375 L 180.546875 -143.4375 L 177.921875 -143.4375 L 177.921875 -146.59375 C 177.921875 -154.488281 175.550781 -160.890625 170.8125 -165.796875 C 166.070312 -170.710938 159.664062 -173.257812 151.59375 -173.4375 L 116.0625 -173.4375 L 116.0625 -18.953125 C 116.414062 -12.628906 119.3125 -7.890625 124.75 -4.734375 C 127.207031 -3.328125 129.925781 -2.625 132.90625 -2.625 L 136.328125 -2.625 L 136.328125 0 L 56.328125 0 L 56.328125 -2.625 L 59.75 -2.625 C 64.3125 -2.625 68.210938 -4.203125 71.453125 -7.359375 C 74.703125 -10.523438 76.414062 -14.300781 76.59375 -18.6875 L 76.59375 -173.4375 L 25.265625 -173.4375 C 18.078125 -173.4375 11.757812 -172.125 6.3125 -169.5 C -4.738281 -164.226562 -10.265625 -155.976562 -10.265625 -144.75 C -10.265625 -138.082031 -8.160156 -131.238281 -3.953125 -124.21875 Z M -6.578125 -122.90625 "/></g></g></g><g fill="#000000" fill-opacity="1"><g transform="translate(223.555488, 479.681425)"><g><path d="M 212.65625 -102.90625 C 213.175781 -97.644531 213.4375 -91.019531 213.4375 -83.03125 C 213.4375 -75.050781 211.859375 -65.3125 208.703125 -53.8125 C 205.546875 -42.320312 199.84375 -32.191406 191.59375 -23.421875 C 174.75 -5.347656 151.59375 3.6875 122.125 3.6875 C 86.320312 3.6875 58.066406 -5.128906 37.359375 -22.765625 C 16.660156 -40.398438 6.3125 -63.472656 6.3125 -91.984375 C 6.3125 -120.492188 16.796875 -143.609375 37.765625 -161.328125 C 58.734375 -179.054688 86.410156 -187.921875 120.796875 -187.921875 C 133.960938 -187.921875 146.507812 -186.601562 158.4375 -183.96875 C 170.363281 -181.332031 180.273438 -177.910156 188.171875 -173.703125 L 188.703125 -128.4375 L 186.59375 -128.4375 C 183.613281 -139.664062 178.613281 -149.050781 171.59375 -156.59375 C 158.96875 -170.101562 141.953125 -176.859375 120.546875 -176.859375 C 99.140625 -176.859375 81.898438 -169.222656 68.828125 -153.953125 C 55.753906 -138.691406 49.21875 -118.472656 49.21875 -93.296875 C 49.21875 -68.117188 56.015625 -47.632812 69.609375 -31.84375 C 83.210938 -16.050781 101.941406 -7.894531 125.796875 -7.375 C 151.585938 -7.375 172.113281 -15.617188 187.375 -32.109375 C 202.644531 -48.597656 210.28125 -70.96875 210.28125 -99.21875 C 210.28125 -100.445312 210.28125 -101.675781 210.28125 -102.90625 Z M 212.65625 -102.90625 "/></g></g></g><g fill="#000000" fill-opacity="1"><g transform="translate(440.945529, 479.681425)"><g><path d="M -17.640625 -199.5 C -14.828125 -199.675781 -10.394531 -199.765625 -4.34375 -199.765625 C 1.707031 -199.765625 9.691406 -198.488281 19.609375 -195.9375 C 29.523438 -193.394531 38.691406 -189.40625 47.109375 -183.96875 C 55.535156 -178.53125 63.253906 -171.953125 70.265625 -164.234375 C 83.253906 -149.835938 93.429688 -132.550781 100.796875 -112.375 C 111.328125 -142.382812 125.015625 -165.375 141.859375 -181.34375 C 154.671875 -193.445312 168.796875 -199.5 184.234375 -199.5 C 184.929688 -199.5 185.632812 -199.5 186.34375 -199.5 L 186.34375 -196.859375 C 177.5625 -196.679688 168.476562 -192.078125 159.09375 -183.046875 C 149.707031 -174.015625 141.503906 -163.09375 134.484375 -150.28125 C 127.472656 -137.46875 121.550781 -124.128906 116.71875 -110.265625 C 111.894531 -96.410156 109.046875 -84.394531 108.171875 -74.21875 L 108.171875 -19.21875 C 108.171875 -14.832031 109.789062 -10.96875 113.03125 -7.625 C 116.28125 -4.289062 120.273438 -2.625 125.015625 -2.625 L 128.4375 -2.625 L 128.4375 0 L 48.421875 0 L 48.421875 -2.625 L 51.84375 -2.625 C 56.40625 -2.625 60.304688 -4.25 63.546875 -7.5 C 66.796875 -10.75 68.507812 -14.65625 68.6875 -19.21875 L 68.6875 -74.484375 C 66.582031 -93.429688 60.269531 -113.519531 49.75 -134.75 C 37.632812 -159.3125 24.035156 -176.769531 8.953125 -187.125 C 0.171875 -193.269531 -8.691406 -196.515625 -17.640625 -196.859375 Z M -17.640625 -199.5 "/></g></g></g><g fill="#000000" fill-opacity="1"><g transform="translate(616.489295, 479.681425)"><g><path d="M 160.28125 -108.703125 C 154.3125 -95.015625 143.257812 -85.535156 127.125 -80.265625 C 122.382812 -78.691406 117.992188 -77.90625 113.953125 -77.90625 C 101.503906 -77.90625 90.363281 -81.148438 80.53125 -87.640625 L 80.53125 -90.265625 C 93.695312 -89.921875 104.3125 -94.222656 112.375 -103.171875 C 119.570312 -110.890625 123.171875 -120.976562 123.171875 -133.4375 C 123.171875 -152.5625 116.503906 -164.929688 103.171875 -170.546875 C 98.960938 -172.296875 94.3125 -173.171875 89.21875 -173.171875 L 71.59375 -173.171875 L 71.59375 -19.21875 C 71.59375 -14.65625 73.257812 -10.75 76.59375 -7.5 C 79.925781 -4.25 83.875 -2.625 88.4375 -2.625 L 91.859375 -2.625 L 91.859375 0 L 11.84375 0 L 11.84375 -2.625 L 15.265625 -2.625 C 19.828125 -2.625 23.726562 -4.25 26.96875 -7.5 C 30.21875 -10.75 31.929688 -14.65625 32.109375 -19.21875 L 32.109375 -166.328125 C 31.410156 -172.296875 28.425781 -176.6875 23.15625 -179.5 C 20.695312 -180.894531 18.066406 -181.59375 15.265625 -181.59375 L 11.84375 -181.59375 L 11.84375 -184.234375 L 99.75 -184.234375 C 131.507812 -184.234375 151.863281 -174.144531 160.8125 -153.96875 C 163.613281 -147.300781 165.015625 -139.882812 165.015625 -131.71875 C 165.015625 -123.5625 163.4375 -115.890625 160.28125 -108.703125 Z M 160.28125 -108.703125 "/></g></g></g><path fill="#000000" d="M 362.019531 389.628906 C 362.019531 394.855469 357.773438 399.089844 352.53125 399.089844 C 347.292969 399.089844 343.046875 394.855469 343.046875 389.628906 C 343.046875 384.40625 347.292969 380.175781 352.53125 380.175781 C 357.773438 380.175781 362.019531 384.40625 362.019531 389.628906 " fill-opacity="1" fill-rule="nonzero"/><path fill="#ffffff" d="M 350.507812 384.683594 C 350.507812 386.007812 349.429688 387.082031 348.101562 387.082031 C 346.773438 387.082031 345.695312 386.007812 345.695312 384.683594 C 345.695312 383.359375 346.773438 382.285156 348.101562 382.285156 C 349.429688 382.285156 350.507812 383.359375 350.507812 384.683594 " fill-opacity="1" fill-rule="nonzero"/><path fill="#000000" d="M 349.597656 345.714844 C 349.597656 348.828125 347.066406 351.351562 343.945312 351.351562 C 340.820312 351.351562 338.289062 348.828125 338.289062 345.714844 C 338.289062 342.601562 340.820312 340.074219 343.945312 340.074219 C 347.066406 340.074219 349.597656 342.601562 349.597656 345.714844 " fill-opacity="1" fill-rule="nonzero"/><path fill="#000000" d="M 341.019531 434.730469 C 331.363281 433.066406 327.164062 410.773438 331.644531 384.933594 C 333.917969 371.808594 337.992188 360.296875 342.71875 352.363281 C 341.132812 352.117188 339.730469 351.320312 338.710938 350.175781 C 334.011719 358.84375 330.011719 370.710938 327.691406 384.085938 C 322.722656 412.753906 327.382812 437.488281 338.09375 439.332031 C 346.183594 440.726562 355.414062 428.667969 361.585938 410.339844 C 356.035156 425.875 348.050781 435.941406 341.019531 434.730469 Z M 356.085938 335.519531 C 352.957031 334.980469 349.65625 336.457031 346.425781 339.53125 C 348.132812 340.261719 349.472656 341.671875 350.109375 343.421875 C 352.507812 341.589844 354.921875 340.765625 357.234375 341.164062 C 364.621094 342.4375 368.816406 355.796875 368.367188 373.582031 C 369.257812 352.8125 364.570312 336.980469 356.085938 335.519531 " fill-opacity="1" fill-rule="nonzero"/><path fill="#000000" d="M 351.328125 410.199219 C 323.414062 404.414062 302.535156 391.320312 304.695312 380.949219 C 306.859375 370.578125 331.238281 366.859375 359.152344 372.640625 C 383.066406 377.59375 401.8125 387.914062 405.335938 397.292969 C 401.859375 386.773438 380.847656 375.074219 353.9375 369.5 C 322.96875 363.085938 295.914062 367.210938 293.519531 378.71875 C 291.121094 390.222656 314.285156 404.753906 345.253906 411.167969 C 373.628906 417.046875 398.707031 414.074219 404.558594 404.6875 C 398.90625 412.886719 376.5625 415.425781 351.328125 410.199219 " fill-opacity="1" fill-rule="nonzero"/><g clip-path="url(#97cacbfb0b)"><path fill="#000000" d="M 409.488281 401.347656 C 409.488281 403.859375 407.445312 405.894531 404.925781 405.894531 C 402.410156 405.894531 400.367188 403.859375 400.367188 401.347656 C 400.367188 398.835938 402.410156 396.800781 404.925781 396.800781 C 407.445312 396.800781 409.488281 398.835938 409.488281 401.347656 " fill-opacity="1" fill-rule="nonzero"/></g><path fill="#000000" d="M 338.273438 377.785156 C 362.109375 362.191406 386.160156 356.730469 391.984375 365.589844 C 397.8125 374.445312 383.210938 394.265625 359.371094 409.855469 C 338.949219 423.214844 318.375 429.132812 309.234375 424.988281 C 319.152344 429.976562 342.304688 423.433594 365.285156 408.402344 C 391.734375 391.101562 407.9375 369.113281 401.472656 359.285156 C 395.007812 349.457031 368.324219 355.515625 341.875 372.816406 C 317.644531 388.664062 302.019531 408.449219 304.535156 419.210938 C 302.722656 409.429688 316.71875 391.878906 338.273438 377.785156 " fill-opacity="1" fill-rule="nonzero"/><path fill="#000000" d="M 312.765625 421.878906 C 312.765625 425.054688 310.183594 427.628906 307 427.628906 C 303.8125 427.628906 301.230469 425.054688 301.230469 421.878906 C 301.230469 418.703125 303.8125 416.125 307 416.125 C 310.183594 416.125 312.765625 418.703125 312.765625 421.878906 " fill-opacity="1" fill-rule="nonzero"/><path fill="#ffffff" d="M 306.308594 420.164062 C 306.308594 421.199219 305.464844 422.042969 304.421875 422.042969 C 303.382812 422.042969 302.535156 421.199219 302.535156 420.164062 C 302.535156 419.125 303.382812 418.28125 304.421875 418.28125 C 305.464844 418.28125 306.308594 419.125 306.308594 420.164062 " fill-opacity="1" fill-rule="nonzero"/><path fill="#ffffff" d="M 403.921875 399.640625 C 403.921875 400.238281 403.433594 400.726562 402.832031 400.726562 C 402.230469 400.726562 401.742188 400.238281 401.742188 399.640625 C 401.742188 399.042969 402.230469 398.554688 402.832031 398.554688 C 403.433594 398.554688 403.921875 399.042969 403.921875 399.640625 " fill-opacity="1" fill-rule="nonzero"/><path fill="#ffffff" d="M 342.769531 343.28125 C 342.769531 344.148438 342.0625 344.851562 341.195312 344.851562 C 340.324219 344.851562 339.621094 344.148438 339.621094 343.28125 C 339.621094 342.414062 340.324219 341.710938 341.195312 341.710938 C 342.0625 341.710938 342.769531 342.414062 342.769531 343.28125 " fill-opacity="1" fill-rule="nonzero"/><g fill="#000000" fill-opacity="1"><g transform="translate(104.879935, 515.579219)"><g><path d="M -0.84375 -15.609375 C -1.925781 -16.648438 -2.46875 -17.773438 -2.46875 -18.984375 C -2.46875 -19.921875 -2.171875 -20.734375 -1.578125 -21.421875 C -0.441406 -22.753906 1.148438 -23.421875 3.203125 -23.421875 L 18.953125 -23.421875 C 19.929688 -23.453125 20.785156 -23.535156 21.515625 -23.671875 C 22.253906 -23.816406 22.722656 -23.9375 22.921875 -24.03125 L 22.921875 -18.21875 L 22.59375 -18.21875 L 22.59375 -18.609375 C 22.59375 -19.617188 22.289062 -20.429688 21.6875 -21.046875 C 21.082031 -21.671875 20.269531 -22 19.25 -22.03125 L 14.734375 -22.03125 L 14.734375 -2.40625 C 14.773438 -1.601562 15.144531 -1.003906 15.84375 -0.609375 C 16.15625 -0.421875 16.5 -0.328125 16.875 -0.328125 L 17.3125 -0.328125 L 17.3125 0 L 7.15625 0 L 7.15625 -0.328125 L 7.578125 -0.328125 C 8.160156 -0.328125 8.65625 -0.523438 9.0625 -0.921875 C 9.476562 -1.328125 9.695312 -1.8125 9.71875 -2.375 L 9.71875 -22.03125 L 3.203125 -22.03125 C 2.296875 -22.03125 1.492188 -21.863281 0.796875 -21.53125 C -0.609375 -20.851562 -1.3125 -19.800781 -1.3125 -18.375 C -1.3125 -17.53125 -1.039062 -16.664062 -0.5 -15.78125 Z M -0.84375 -15.609375 "/></g></g></g><g fill="#000000" fill-opacity="1"><g transform="translate(128.196924, 515.579219)"><g><path d="M 10.625 -21.921875 L 9.1875 -21.921875 C 9.144531 -21.921875 9.113281 -21.921875 9.09375 -21.921875 L 9.09375 -2.4375 C 9.113281 -1.613281 9.46875 -1.003906 10.15625 -0.609375 C 10.488281 -0.421875 10.847656 -0.328125 11.234375 -0.328125 L 11.671875 -0.328125 L 11.671875 0 L 1.5 0 L 1.5 -0.328125 L 1.9375 -0.328125 C 2.738281 -0.328125 3.351562 -0.675781 3.78125 -1.375 C 3.957031 -1.6875 4.054688 -2.03125 4.078125 -2.40625 L 4.078125 -20.953125 C 4.054688 -21.535156 3.835938 -22.03125 3.421875 -22.4375 C 3.015625 -22.851562 2.519531 -23.0625 1.9375 -23.0625 L 1.5 -23.0625 L 1.5 -23.390625 L 12.96875 -23.390625 C 15.125 -23.390625 16.953125 -22.921875 18.453125 -21.984375 C 19.203125 -21.523438 19.800781 -20.875 20.25 -20.03125 C 20.695312 -19.195312 20.921875 -18.25 20.921875 -17.1875 C 20.921875 -16.132812 20.734375 -15.160156 20.359375 -14.265625 C 19.992188 -13.378906 19.382812 -12.597656 18.53125 -11.921875 C 17.675781 -11.253906 16.644531 -10.859375 15.4375 -10.734375 C 16.726562 -10.304688 17.863281 -9.320312 18.84375 -7.78125 C 21.25 -3.925781 23.035156 -1.632812 24.203125 -0.90625 C 24.773438 -0.550781 25.5 -0.359375 26.375 -0.328125 L 26.375 0 L 23.09375 0 C 21.195312 0 19.613281 -0.257812 18.34375 -0.78125 C 17.070312 -1.3125 16.035156 -2.207031 15.234375 -3.46875 C 14.835938 -4.113281 14.328125 -5.085938 13.703125 -6.390625 C 13.078125 -7.703125 12.664062 -8.632812 12.46875 -9.1875 C 11.863281 -10.53125 11.101562 -11.28125 10.1875 -11.4375 L 10.1875 -11.765625 L 11.234375 -11.765625 C 12.234375 -11.765625 13.117188 -12.0625 13.890625 -12.65625 C 14.660156 -13.257812 15.175781 -14.242188 15.4375 -15.609375 C 15.53125 -16.078125 15.578125 -16.445312 15.578125 -16.71875 C 15.578125 -18.539062 15.207031 -19.859375 14.46875 -20.671875 C 13.738281 -21.484375 12.789062 -21.898438 11.625 -21.921875 C 11.40625 -21.921875 11.070312 -21.921875 10.625 -21.921875 Z M 10.625 -21.921875 "/></g></g></g><g fill="#000000" fill-opacity="1"><g transform="translate(153.117382, 515.579219)"><g><path d="M 1.84375 -0.328125 C 2.414062 -0.328125 2.90625 -0.535156 3.3125 -0.953125 C 3.726562 -1.367188 3.953125 -1.863281 3.984375 -2.4375 L 3.984375 -20.984375 C 3.953125 -21.566406 3.726562 -22.054688 3.3125 -22.453125 C 2.90625 -22.859375 2.414062 -23.0625 1.84375 -23.0625 L 1.40625 -23.0625 L 1.40625 -23.390625 L 11.5625 -23.390625 L 11.53125 -23.0625 L 11.125 -23.0625 C 10.550781 -23.0625 10.050781 -22.859375 9.625 -22.453125 C 9.195312 -22.054688 8.984375 -21.566406 8.984375 -20.984375 L 8.984375 -2.4375 C 8.984375 -1.863281 9.195312 -1.367188 9.625 -0.953125 C 10.050781 -0.535156 10.550781 -0.328125 11.125 -0.328125 L 11.53125 -0.328125 L 11.5625 0 L 1.40625 0 L 1.40625 -0.328125 Z M 1.84375 -0.328125 "/></g></g></g><g fill="#000000" fill-opacity="1"><g transform="translate(166.011889, 515.579219)"><g><path d="M 1.0625 -9.765625 L 1.34375 -10.859375 L 11.359375 -10.859375 L 11.625 -9.765625 L 11.359375 -8.625 L 1.34375 -8.625 Z M 1.0625 -9.765625 "/></g></g></g><g fill="#000000" fill-opacity="1"><g transform="translate(178.705958, 515.579219)"><g><path d="M 27 -13.0625 C 27.070312 -12.394531 27.109375 -11.554688 27.109375 -10.546875 C 27.109375 -9.535156 26.90625 -8.296875 26.5 -6.828125 C 26.101562 -5.367188 25.378906 -4.082031 24.328125 -2.96875 C 22.191406 -0.675781 19.25 0.46875 15.5 0.46875 C 10.957031 0.46875 7.367188 -0.648438 4.734375 -2.890625 C 2.109375 -5.128906 0.796875 -8.054688 0.796875 -11.671875 C 0.796875 -15.296875 2.128906 -18.234375 4.796875 -20.484375 C 7.460938 -22.734375 10.976562 -23.859375 15.34375 -23.859375 C 17.007812 -23.859375 18.597656 -23.691406 20.109375 -23.359375 C 21.628906 -23.023438 22.890625 -22.59375 23.890625 -22.0625 L 23.96875 -16.3125 L 23.703125 -16.3125 C 23.316406 -17.738281 22.679688 -18.929688 21.796875 -19.890625 C 20.191406 -21.597656 18.03125 -22.453125 15.3125 -22.453125 C 12.59375 -22.453125 10.398438 -21.484375 8.734375 -19.546875 C 7.078125 -17.609375 6.25 -15.039062 6.25 -11.84375 C 6.25 -8.644531 7.113281 -6.039062 8.84375 -4.03125 C 10.570312 -2.03125 12.945312 -1 15.96875 -0.9375 C 19.25 -0.9375 21.859375 -1.984375 23.796875 -4.078125 C 25.734375 -6.171875 26.703125 -9.007812 26.703125 -12.59375 C 26.703125 -12.75 26.703125 -12.90625 26.703125 -13.0625 Z M 27 -13.0625 "/></g></g></g><g fill="#000000" fill-opacity="1"><g transform="translate(206.298841, 515.579219)"><g><path d="M 17.6875 -0.328125 C 18.257812 -0.328125 18.703125 -0.472656 19.015625 -0.765625 C 19.523438 -1.273438 19.789062 -1.820312 19.8125 -2.40625 L 19.8125 -10.921875 L 8.984375 -10.921875 L 8.984375 -2.4375 C 8.984375 -1.863281 9.195312 -1.367188 9.625 -0.953125 C 10.050781 -0.535156 10.550781 -0.328125 11.125 -0.328125 L 11.53125 -0.328125 L 11.5625 0 L 1.40625 0 L 1.40625 -0.328125 L 1.84375 -0.328125 C 2.414062 -0.328125 2.90625 -0.535156 3.3125 -0.953125 C 3.726562 -1.367188 3.953125 -1.863281 3.984375 -2.4375 L 3.984375 -20.984375 C 3.953125 -21.566406 3.726562 -22.054688 3.3125 -22.453125 C 2.90625 -22.859375 2.414062 -23.0625 1.84375 -23.0625 L 1.40625 -23.0625 L 1.40625 -23.390625 L 11.5625 -23.390625 L 11.53125 -23.0625 L 11.125 -23.0625 C 10.550781 -23.0625 10.050781 -22.859375 9.625 -22.453125 C 9.195312 -22.054688 8.984375 -21.566406 8.984375 -20.984375 L 8.984375 -12.359375 L 19.8125 -12.359375 L 19.8125 -20.984375 C 19.789062 -21.566406 19.570312 -22.054688 19.15625 -22.453125 C 18.75 -22.859375 18.257812 -23.0625 17.6875 -23.0625 L 17.25 -23.0625 L 17.25 -23.390625 L 27.40625 -23.390625 L 27.40625 -23.0625 L 26.96875 -23.0625 C 26.394531 -23.0625 25.894531 -22.851562 25.46875 -22.4375 C 25.039062 -22.03125 24.828125 -21.535156 24.828125 -20.953125 L 24.828125 -2.4375 C 24.828125 -1.863281 25.039062 -1.367188 25.46875 -0.953125 C 25.894531 -0.535156 26.394531 -0.328125 26.96875 -0.328125 L 27.40625 -0.328125 L 27.40625 0 L 17.25 0 L 17.25 -0.328125 Z M 17.6875 -0.328125 "/></g></g></g><g fill="#000000" fill-opacity="1"><g transform="translate(235.060919, 515.579219)"><g><path d="M 24.65625 -0.328125 L 24.96875 -0.328125 L 24.96875 0 L 14.296875 0 L 14.296875 -0.328125 L 14.609375 -0.328125 C 15.097656 -0.328125 15.457031 -0.476562 15.6875 -0.78125 C 15.925781 -1.082031 16.046875 -1.363281 16.046875 -1.625 C 16.046875 -1.894531 15.988281 -2.164062 15.875 -2.4375 L 14.234375 -6.546875 L 6.421875 -6.546875 L 4.671875 -2.4375 C 4.566406 -2.144531 4.515625 -1.867188 4.515625 -1.609375 C 4.515625 -1.359375 4.628906 -1.082031 4.859375 -0.78125 C 5.097656 -0.476562 5.472656 -0.328125 5.984375 -0.328125 L 6.25 -0.328125 L 6.25 0 L -0.90625 0 L -0.90625 -0.328125 L -0.609375 -0.328125 C -0.0859375 -0.328125 0.425781 -0.484375 0.9375 -0.796875 C 1.445312 -1.109375 1.867188 -1.578125 2.203125 -2.203125 L 9.921875 -19.6875 C 10.972656 -21.894531 11.53125 -23.351562 11.59375 -24.0625 L 11.890625 -24.0625 L 21.828125 -2.265625 C 22.160156 -1.617188 22.582031 -1.132812 23.09375 -0.8125 C 23.601562 -0.488281 24.125 -0.328125 24.65625 -0.328125 Z M 6.984375 -7.953125 L 13.671875 -7.953125 L 10.421875 -16.171875 Z M 6.984375 -7.953125 "/></g></g></g><g fill="#000000" fill-opacity="1"><g transform="translate(258.979204, 515.579219)"><g><path d="M 27.3125 -23.0625 C 26.75 -23.0625 26.265625 -22.863281 25.859375 -22.46875 C 25.460938 -22.082031 25.253906 -21.613281 25.234375 -21.0625 L 25.234375 -3.8125 C 25.234375 -2.320312 25.332031 -1.0625 25.53125 -0.03125 L 25.640625 0.46875 L 25.328125 0.46875 L 8.453125 -15.609375 L 8.453125 -2.34375 C 8.453125 -1.78125 8.648438 -1.300781 9.046875 -0.90625 C 9.453125 -0.519531 9.9375 -0.328125 10.5 -0.328125 L 11.125 -0.328125 L 11.125 0 L 1 0 L 1 -0.328125 L 1.609375 -0.328125 C 2.179688 -0.328125 2.664062 -0.519531 3.0625 -0.90625 C 3.46875 -1.300781 3.671875 -1.789062 3.671875 -2.375 L 3.671875 -19.71875 C 3.671875 -21.1875 3.570312 -22.410156 3.375 -23.390625 L 3.3125 -23.890625 L 3.609375 -23.890625 L 20.484375 -7.828125 L 20.484375 -21.015625 C 20.460938 -21.597656 20.25 -22.082031 19.84375 -22.46875 C 19.445312 -22.863281 18.972656 -23.0625 18.421875 -23.0625 L 17.8125 -23.0625 L 17.8125 -23.390625 L 27.9375 -23.390625 L 27.9375 -23.0625 Z M 27.3125 -23.0625 "/></g></g></g><g fill="#000000" fill-opacity="1"><g transform="translate(287.874901, 515.579219)"><g><path d="M 13.53125 -23.390625 C 17.476562 -23.390625 20.597656 -22.34375 22.890625 -20.25 C 25.191406 -18.15625 26.34375 -15.300781 26.34375 -11.6875 C 26.34375 -8.082031 25.191406 -5.234375 22.890625 -3.140625 C 20.597656 -1.046875 17.476562 0 13.53125 0 L 1.40625 0 L 1.40625 -0.328125 L 1.84375 -0.328125 C 2.414062 -0.328125 2.90625 -0.535156 3.3125 -0.953125 C 3.726562 -1.367188 3.953125 -1.863281 3.984375 -2.4375 L 3.984375 -21.15625 C 3.910156 -21.6875 3.671875 -22.132812 3.265625 -22.5 C 2.867188 -22.875 2.394531 -23.0625 1.84375 -23.0625 L 1.40625 -23.0625 L 1.40625 -23.390625 Z M 13.09375 -1.40625 C 14.695312 -1.40625 16.082031 -1.820312 17.25 -2.65625 C 18.425781 -3.488281 19.328125 -4.679688 19.953125 -6.234375 C 20.578125 -7.785156 20.890625 -9.609375 20.890625 -11.703125 C 20.890625 -14.859375 20.191406 -17.359375 18.796875 -19.203125 C 17.410156 -21.054688 15.507812 -21.984375 13.09375 -21.984375 L 8.984375 -21.984375 L 8.984375 -1.40625 Z M 13.09375 -1.40625 "/></g></g></g><g fill="#000000" fill-opacity="1"><g transform="translate(315.534604, 515.579219)"><g><path d="M 10.625 -21.921875 L 9.1875 -21.921875 C 9.144531 -21.921875 9.113281 -21.921875 9.09375 -21.921875 L 9.09375 -2.4375 C 9.113281 -1.613281 9.46875 -1.003906 10.15625 -0.609375 C 10.488281 -0.421875 10.847656 -0.328125 11.234375 -0.328125 L 11.671875 -0.328125 L 11.671875 0 L 1.5 0 L 1.5 -0.328125 L 1.9375 -0.328125 C 2.738281 -0.328125 3.351562 -0.675781 3.78125 -1.375 C 3.957031 -1.6875 4.054688 -2.03125 4.078125 -2.40625 L 4.078125 -20.953125 C 4.054688 -21.535156 3.835938 -22.03125 3.421875 -22.4375 C 3.015625 -22.851562 2.519531 -23.0625 1.9375 -23.0625 L 1.5 -23.0625 L 1.5 -23.390625 L 12.96875 -23.390625 C 15.125 -23.390625 16.953125 -22.921875 18.453125 -21.984375 C 19.203125 -21.523438 19.800781 -20.875 20.25 -20.03125 C 20.695312 -19.195312 20.921875 -18.25 20.921875 -17.1875 C 20.921875 -16.132812 20.734375 -15.160156 20.359375 -14.265625 C 19.992188 -13.378906 19.382812 -12.597656 18.53125 -11.921875 C 17.675781 -11.253906 16.644531 -10.859375 15.4375 -10.734375 C 16.726562 -10.304688 17.863281 -9.320312 18.84375 -7.78125 C 21.25 -3.925781 23.035156 -1.632812 24.203125 -0.90625 C 24.773438 -0.550781 25.5 -0.359375 26.375 -0.328125 L 26.375 0 L 23.09375 0 C 21.195312 0 19.613281 -0.257812 18.34375 -0.78125 C 17.070312 -1.3125 16.035156 -2.207031 15.234375 -3.46875 C 14.835938 -4.113281 14.328125 -5.085938 13.703125 -6.390625 C 13.078125 -7.703125 12.664062 -8.632812 12.46875 -9.1875 C 11.863281 -10.53125 11.101562 -11.28125 10.1875 -11.4375 L 10.1875 -11.765625 L 11.234375 -11.765625 C 12.234375 -11.765625 13.117188 -12.0625 13.890625 -12.65625 C 14.660156 -13.257812 15.175781 -14.242188 15.4375 -15.609375 C 15.53125 -16.078125 15.578125 -16.445312 15.578125 -16.71875 C 15.578125 -18.539062 15.207031 -19.859375 14.46875 -20.671875 C 13.738281 -21.484375 12.789062 -21.898438 11.625 -21.921875 C 11.40625 -21.921875 11.070312 -21.921875 10.625 -21.921875 Z M 10.625 -21.921875 "/></g></g></g><g fill="#000000" fill-opacity="1"><g transform="translate(340.455063, 515.579219)"><g><path d="M 24.65625 -0.328125 L 24.96875 -0.328125 L 24.96875 0 L 14.296875 0 L 14.296875 -0.328125 L 14.609375 -0.328125 C 15.097656 -0.328125 15.457031 -0.476562 15.6875 -0.78125 C 15.925781 -1.082031 16.046875 -1.363281 16.046875 -1.625 C 16.046875 -1.894531 15.988281 -2.164062 15.875 -2.4375 L 14.234375 -6.546875 L 6.421875 -6.546875 L 4.671875 -2.4375 C 4.566406 -2.144531 4.515625 -1.867188 4.515625 -1.609375 C 4.515625 -1.359375 4.628906 -1.082031 4.859375 -0.78125 C 5.097656 -0.476562 5.472656 -0.328125 5.984375 -0.328125 L 6.25 -0.328125 L 6.25 0 L -0.90625 0 L -0.90625 -0.328125 L -0.609375 -0.328125 C -0.0859375 -0.328125 0.425781 -0.484375 0.9375 -0.796875 C 1.445312 -1.109375 1.867188 -1.578125 2.203125 -2.203125 L 9.921875 -19.6875 C 10.972656 -21.894531 11.53125 -23.351562 11.59375 -24.0625 L 11.890625 -24.0625 L 21.828125 -2.265625 C 22.160156 -1.617188 22.582031 -1.132812 23.09375 -0.8125 C 23.601562 -0.488281 24.125 -0.328125 24.65625 -0.328125 Z M 6.984375 -7.953125 L 13.671875 -7.953125 L 10.421875 -16.171875 Z M 6.984375 -7.953125 "/></g></g></g><g fill="#000000" fill-opacity="1"><g transform="translate(364.373348, 515.579219)"><g/></g></g><g fill="#000000" fill-opacity="1"><g transform="translate(372.7247, 515.579219)"><g><path d="M 36.265625 5.6875 C 34.523438 6.550781 32.675781 6.984375 30.71875 6.984375 C 28.976562 6.984375 27.394531 6.71875 25.96875 6.1875 C 22.894531 5.050781 20.273438 2.832031 18.109375 -0.46875 C 17.554688 -1.269531 16.519531 -2.804688 15 -5.078125 C 13.488281 -7.347656 12.507812 -8.796875 12.0625 -9.421875 C 11.28125 -10.648438 10.65625 -11.320312 10.1875 -11.4375 L 10.1875 -11.765625 C 10.21875 -11.765625 10.25 -11.765625 10.28125 -11.765625 C 10.3125 -11.765625 10.347656 -11.765625 10.390625 -11.765625 C 10.441406 -11.765625 10.488281 -11.765625 10.53125 -11.765625 C 10.570312 -11.765625 10.625 -11.765625 10.6875 -11.765625 C 10.757812 -11.765625 10.816406 -11.765625 10.859375 -11.765625 C 11.992188 -11.765625 13.039062 -12.019531 14 -12.53125 C 15.445312 -13.332031 16.171875 -14.816406 16.171875 -16.984375 C 16.171875 -18.554688 15.722656 -19.769531 14.828125 -20.625 C 13.941406 -21.488281 12.875 -21.921875 11.625 -21.921875 L 9.09375 -21.921875 L 9.09375 -2.4375 C 9.09375 -1.863281 9.300781 -1.367188 9.71875 -0.953125 C 10.144531 -0.535156 10.648438 -0.328125 11.234375 -0.328125 L 11.671875 -0.328125 L 11.671875 0 L 1.5 0 L 1.5 -0.328125 L 1.9375 -0.328125 C 2.5 -0.328125 2.988281 -0.523438 3.40625 -0.921875 C 3.832031 -1.328125 4.054688 -1.820312 4.078125 -2.40625 L 4.078125 -20.953125 C 4.054688 -21.535156 3.835938 -22.03125 3.421875 -22.4375 C 3.015625 -22.851562 2.519531 -23.0625 1.9375 -23.0625 L 1.5 -23.0625 L 1.5 -23.390625 L 12.96875 -23.390625 C 15.84375 -23.390625 18.070312 -22.734375 19.65625 -21.421875 C 20.90625 -20.398438 21.53125 -18.953125 21.53125 -17.078125 C 21.53125 -15.203125 20.921875 -13.679688 19.703125 -12.515625 C 18.484375 -11.347656 17.097656 -10.765625 15.546875 -10.765625 C 15.410156 -10.765625 15.265625 -10.773438 15.109375 -10.796875 C 16.023438 -10.304688 16.785156 -9.757812 17.390625 -9.15625 C 18.003906 -8.550781 18.539062 -7.984375 19 -7.453125 C 19.457031 -6.921875 19.847656 -6.445312 20.171875 -6.03125 C 20.492188 -5.625 20.921875 -5.078125 21.453125 -4.390625 C 21.992188 -3.710938 22.550781 -3.003906 23.125 -2.265625 C 23.707031 -1.535156 24.347656 -0.785156 25.046875 -0.015625 C 25.753906 0.753906 26.535156 1.484375 27.390625 2.171875 C 28.242188 2.859375 29.117188 3.425781 30.015625 3.875 C 31.910156 4.832031 33.992188 5.320312 36.265625 5.34375 Z M 36.265625 5.6875 "/></g></g></g><g fill="#000000" fill-opacity="1"><g transform="translate(397.144082, 515.579219)"><g><path d="M 1.84375 -0.328125 C 2.414062 -0.328125 2.90625 -0.535156 3.3125 -0.953125 C 3.726562 -1.367188 3.953125 -1.863281 3.984375 -2.4375 L 3.984375 -21.0625 C 3.910156 -21.832031 3.539062 -22.410156 2.875 -22.796875 C 2.539062 -22.972656 2.195312 -23.0625 1.84375 -23.0625 L 1.40625 -23.0625 L 1.40625 -23.390625 L 14.203125 -23.390625 C 14.890625 -23.390625 15.644531 -23.457031 16.46875 -23.59375 C 17.300781 -23.726562 17.882812 -23.863281 18.21875 -24 L 18.21875 -18.140625 L 17.875 -18.140625 L 17.875 -18.546875 C 17.875 -19.546875 17.578125 -20.351562 16.984375 -20.96875 C 16.398438 -21.582031 15.609375 -21.910156 14.609375 -21.953125 L 8.984375 -21.953125 L 8.984375 -12.234375 L 13.40625 -12.234375 C 14.226562 -12.253906 14.90625 -12.535156 15.4375 -13.078125 C 15.976562 -13.628906 16.25 -14.304688 16.25 -15.109375 L 16.25 -15.40625 L 16.578125 -15.40625 L 16.578125 -7.6875 L 16.25 -7.6875 L 16.25 -7.953125 C 16.25 -9.066406 15.800781 -9.890625 14.90625 -10.421875 C 14.457031 -10.671875 13.96875 -10.804688 13.4375 -10.828125 L 8.984375 -10.828125 L 8.984375 -1.4375 L 13.375 -1.4375 C 15 -1.4375 16.363281 -1.90625 17.46875 -2.84375 C 18.570312 -3.78125 19.390625 -5.101562 19.921875 -6.8125 L 20.25 -6.8125 L 18.71875 0 L 1.40625 0 L 1.40625 -0.328125 Z M 1.84375 -0.328125 "/></g></g></g><g fill="#000000" fill-opacity="1"><g transform="translate(418.222903, 515.579219)"><g><path d="M 1.671875 -3.109375 C 1.671875 -4.710938 2.015625 -6.082031 2.703125 -7.21875 L 3.015625 -7.21875 C 2.984375 -7.039062 2.96875 -6.863281 2.96875 -6.6875 C 2.96875 -5.144531 3.519531 -3.800781 4.625 -2.65625 C 5.726562 -1.507812 7.238281 -0.9375 9.15625 -0.9375 C 10.644531 -0.9375 11.804688 -1.289062 12.640625 -2 C 13.484375 -2.71875 13.90625 -3.625 13.90625 -4.71875 C 13.90625 -6.03125 13.015625 -7.175781 11.234375 -8.15625 L 5.421875 -12 C 4.253906 -12.664062 3.421875 -13.472656 2.921875 -14.421875 C 2.421875 -15.367188 2.171875 -16.332031 2.171875 -17.3125 C 2.171875 -19.40625 2.832031 -21.019531 4.15625 -22.15625 C 5.488281 -23.289062 7.191406 -23.859375 9.265625 -23.859375 C 10.484375 -23.859375 11.992188 -23.75 13.796875 -23.53125 L 15.90625 -23.53125 L 15.46875 -18.609375 L 15.140625 -18.609375 C 15.140625 -19.773438 14.707031 -20.707031 13.84375 -21.40625 C 12.988281 -22.101562 11.847656 -22.453125 10.421875 -22.453125 C 8.691406 -22.453125 7.4375 -21.921875 6.65625 -20.859375 C 6.25 -20.347656 6.046875 -19.769531 6.046875 -19.125 C 6.046875 -18.050781 6.828125 -17.054688 8.390625 -16.140625 L 14.765625 -12 C 16.773438 -10.84375 17.78125 -9.140625 17.78125 -6.890625 C 17.78125 -4.503906 16.972656 -2.679688 15.359375 -1.421875 C 13.742188 -0.160156 11.597656 0.46875 8.921875 0.46875 C 7.410156 0.46875 6.015625 0.285156 4.734375 -0.078125 C 3.453125 -0.453125 2.507812 -0.953125 1.90625 -1.578125 C 1.75 -1.992188 1.671875 -2.503906 1.671875 -3.109375 Z M 1.671875 -3.109375 "/></g></g></g><g fill="#000000" fill-opacity="1"><g transform="translate(437.531253, 515.579219)"><g><path d="M 1.84375 -0.328125 C 2.414062 -0.328125 2.90625 -0.535156 3.3125 -0.953125 C 3.726562 -1.367188 3.953125 -1.863281 3.984375 -2.4375 L 3.984375 -21.0625 C 3.910156 -21.832031 3.539062 -22.410156 2.875 -22.796875 C 2.539062 -22.972656 2.195312 -23.0625 1.84375 -23.0625 L 1.40625 -23.0625 L 1.40625 -23.390625 L 14.203125 -23.390625 C 14.890625 -23.390625 15.644531 -23.457031 16.46875 -23.59375 C 17.300781 -23.726562 17.882812 -23.863281 18.21875 -24 L 18.21875 -18.140625 L 17.875 -18.140625 L 17.875 -18.546875 C 17.875 -19.546875 17.578125 -20.351562 16.984375 -20.96875 C 16.398438 -21.582031 15.609375 -21.910156 14.609375 -21.953125 L 8.984375 -21.953125 L 8.984375 -12.234375 L 13.40625 -12.234375 C 14.226562 -12.253906 14.90625 -12.535156 15.4375 -13.078125 C 15.976562 -13.628906 16.25 -14.304688 16.25 -15.109375 L 16.25 -15.40625 L 16.578125 -15.40625 L 16.578125 -7.6875 L 16.25 -7.6875 L 16.25 -7.953125 C 16.25 -9.066406 15.800781 -9.890625 14.90625 -10.421875 C 14.457031 -10.671875 13.96875 -10.804688 13.4375 -10.828125 L 8.984375 -10.828125 L 8.984375 -1.4375 L 13.375 -1.4375 C 15 -1.4375 16.363281 -1.90625 17.46875 -2.84375 C 18.570312 -3.78125 19.390625 -5.101562 19.921875 -6.8125 L 20.25 -6.8125 L 18.71875 0 L 1.40625 0 L 1.40625 -0.328125 Z M 1.84375 -0.328125 "/></g></g></g><g fill="#000000" fill-opacity="1"><g transform="translate(458.610054, 515.579219)"><g><path d="M 24.65625 -0.328125 L 24.96875 -0.328125 L 24.96875 0 L 14.296875 0 L 14.296875 -0.328125 L 14.609375 -0.328125 C 15.097656 -0.328125 15.457031 -0.476562 15.6875 -0.78125 C 15.925781 -1.082031 16.046875 -1.363281 16.046875 -1.625 C 16.046875 -1.894531 15.988281 -2.164062 15.875 -2.4375 L 14.234375 -6.546875 L 6.421875 -6.546875 L 4.671875 -2.4375 C 4.566406 -2.144531 4.515625 -1.867188 4.515625 -1.609375 C 4.515625 -1.359375 4.628906 -1.082031 4.859375 -0.78125 C 5.097656 -0.476562 5.472656 -0.328125 5.984375 -0.328125 L 6.25 -0.328125 L 6.25 0 L -0.90625 0 L -0.90625 -0.328125 L -0.609375 -0.328125 C -0.0859375 -0.328125 0.425781 -0.484375 0.9375 -0.796875 C 1.445312 -1.109375 1.867188 -1.578125 2.203125 -2.203125 L 9.921875 -19.6875 C 10.972656 -21.894531 11.53125 -23.351562 11.59375 -24.0625 L 11.890625 -24.0625 L 21.828125 -2.265625 C 22.160156 -1.617188 22.582031 -1.132812 23.09375 -0.8125 C 23.601562 -0.488281 24.125 -0.328125 24.65625 -0.328125 Z M 6.984375 -7.953125 L 13.671875 -7.953125 L 10.421875 -16.171875 Z M 6.984375 -7.953125 "/></g></g></g><g fill="#000000" fill-opacity="1"><g transform="translate(482.528319, 515.579219)"><g><path d="M 10.625 -21.921875 L 9.1875 -21.921875 C 9.144531 -21.921875 9.113281 -21.921875 9.09375 -21.921875 L 9.09375 -2.4375 C 9.113281 -1.613281 9.46875 -1.003906 10.15625 -0.609375 C 10.488281 -0.421875 10.847656 -0.328125 11.234375 -0.328125 L 11.671875 -0.328125 L 11.671875 0 L 1.5 0 L 1.5 -0.328125 L 1.9375 -0.328125 C 2.738281 -0.328125 3.351562 -0.675781 3.78125 -1.375 C 3.957031 -1.6875 4.054688 -2.03125 4.078125 -2.40625 L 4.078125 -20.953125 C 4.054688 -21.535156 3.835938 -22.03125 3.421875 -22.4375 C 3.015625 -22.851562 2.519531 -23.0625 1.9375 -23.0625 L 1.5 -23.0625 L 1.5 -23.390625 L 12.96875 -23.390625 C 15.125 -23.390625 16.953125 -22.921875 18.453125 -21.984375 C 19.203125 -21.523438 19.800781 -20.875 20.25 -20.03125 C 20.695312 -19.195312 20.921875 -18.25 20.921875 -17.1875 C 20.921875 -16.132812 20.734375 -15.160156 20.359375 -14.265625 C 19.992188 -13.378906 19.382812 -12.597656 18.53125 -11.921875 C 17.675781 -11.253906 16.644531 -10.859375 15.4375 -10.734375 C 16.726562 -10.304688 17.863281 -9.320312 18.84375 -7.78125 C 21.25 -3.925781 23.035156 -1.632812 24.203125 -0.90625 C 24.773438 -0.550781 25.5 -0.359375 26.375 -0.328125 L 26.375 0 L 23.09375 0 C 21.195312 0 19.613281 -0.257812 18.34375 -0.78125 C 17.070312 -1.3125 16.035156 -2.207031 15.234375 -3.46875 C 14.835938 -4.113281 14.328125 -5.085938 13.703125 -6.390625 C 13.078125 -7.703125 12.664062 -8.632812 12.46875 -9.1875 C 11.863281 -10.53125 11.101562 -11.28125 10.1875 -11.4375 L 10.1875 -11.765625 L 11.234375 -11.765625 C 12.234375 -11.765625 13.117188 -12.0625 13.890625 -12.65625 C 14.660156 -13.257812 15.175781 -14.242188 15.4375 -15.609375 C 15.53125 -16.078125 15.578125 -16.445312 15.578125 -16.71875 C 15.578125 -18.539062 15.207031 -19.859375 14.46875 -20.671875 C 13.738281 -21.484375 12.789062 -21.898438 11.625 -21.921875 C 11.40625 -21.921875 11.070312 -21.921875 10.625 -21.921875 Z M 10.625 -21.921875 "/></g></g></g><g fill="#000000" fill-opacity="1"><g transform="translate(507.448778, 515.579219)"><g><path d="M 15.296875 0.453125 C 11.003906 0.441406 7.628906 -0.640625 5.171875 -2.796875 C 2.722656 -4.960938 1.5 -7.925781 1.5 -11.6875 C 1.5 -15.457031 2.710938 -18.425781 5.140625 -20.59375 C 7.578125 -22.769531 10.910156 -23.859375 15.140625 -23.859375 C 18.367188 -23.859375 21.144531 -23.257812 23.46875 -22.0625 L 23.53125 -16.3125 L 23.265625 -16.3125 C 22.128906 -20.40625 19.53125 -22.453125 15.46875 -22.453125 C 12.84375 -22.453125 10.765625 -21.5 9.234375 -19.59375 C 7.710938 -17.695312 6.953125 -15.097656 6.953125 -11.796875 C 6.953125 -8.492188 7.679688 -5.875 9.140625 -3.9375 C 10.597656 -2 12.578125 -1 15.078125 -0.9375 C 17.660156 -0.9375 19.628906 -1.582031 20.984375 -2.875 C 22.367188 -4.207031 23.328125 -6.503906 23.859375 -9.765625 L 24.125 -9.765625 L 24.46875 -4.015625 C 22.65625 -1.023438 19.597656 0.460938 15.296875 0.453125 Z M 15.296875 0.453125 "/></g></g></g><g fill="#000000" fill-opacity="1"><g transform="translate(533.504991, 515.579219)"><g><path d="M 17.6875 -0.328125 C 18.257812 -0.328125 18.703125 -0.472656 19.015625 -0.765625 C 19.523438 -1.273438 19.789062 -1.820312 19.8125 -2.40625 L 19.8125 -10.921875 L 8.984375 -10.921875 L 8.984375 -2.4375 C 8.984375 -1.863281 9.195312 -1.367188 9.625 -0.953125 C 10.050781 -0.535156 10.550781 -0.328125 11.125 -0.328125 L 11.53125 -0.328125 L 11.5625 0 L 1.40625 0 L 1.40625 -0.328125 L 1.84375 -0.328125 C 2.414062 -0.328125 2.90625 -0.535156 3.3125 -0.953125 C 3.726562 -1.367188 3.953125 -1.863281 3.984375 -2.4375 L 3.984375 -20.984375 C 3.953125 -21.566406 3.726562 -22.054688 3.3125 -22.453125 C 2.90625 -22.859375 2.414062 -23.0625 1.84375 -23.0625 L 1.40625 -23.0625 L 1.40625 -23.390625 L 11.5625 -23.390625 L 11.53125 -23.0625 L 11.125 -23.0625 C 10.550781 -23.0625 10.050781 -22.859375 9.625 -22.453125 C 9.195312 -22.054688 8.984375 -21.566406 8.984375 -20.984375 L 8.984375 -12.359375 L 19.8125 -12.359375 L 19.8125 -20.984375 C 19.789062 -21.566406 19.570312 -22.054688 19.15625 -22.453125 C 18.75 -22.859375 18.257812 -23.0625 17.6875 -23.0625 L 17.25 -23.0625 L 17.25 -23.390625 L 27.40625 -23.390625 L 27.40625 -23.0625 L 26.96875 -23.0625 C 26.394531 -23.0625 25.894531 -22.851562 25.46875 -22.4375 C 25.039062 -22.03125 24.828125 -21.535156 24.828125 -20.953125 L 24.828125 -2.4375 C 24.828125 -1.863281 25.039062 -1.367188 25.46875 -0.953125 C 25.894531 -0.535156 26.394531 -0.328125 26.96875 -0.328125 L 27.40625 -0.328125 L 27.40625 0 L 17.25 0 L 17.25 -0.328125 Z M 17.6875 -0.328125 "/></g></g></g><g fill="#000000" fill-opacity="1"><g transform="translate(562.267069, 515.579219)"><g/></g></g><g fill="#000000" fill-opacity="1"><g transform="translate(570.618421, 515.579219)"><g><path d="M 31.921875 6.625 C 31.359375 6.625 30.8125 6.578125 30.28125 6.484375 C 28.113281 6.148438 26.273438 5.332031 24.765625 4.03125 C 23.253906 2.726562 22.160156 1.109375 21.484375 -0.828125 C 19.390625 0.0351562 17.128906 0.46875 14.703125 0.46875 C 10.691406 0.46875 7.40625 -0.664062 4.84375 -2.9375 C 2.28125 -5.207031 1 -8.128906 1 -11.703125 C 1 -14.085938 1.582031 -16.203125 2.75 -18.046875 C 3.925781 -19.898438 5.570312 -21.332031 7.6875 -22.34375 C 9.800781 -23.351562 12.21875 -23.859375 14.9375 -23.859375 C 16.71875 -23.859375 18.441406 -23.6875 20.109375 -23.34375 C 21.785156 -23 23.140625 -22.570312 24.171875 -22.0625 L 24.234375 -16.3125 L 23.96875 -16.3125 C 23.425781 -18.332031 22.390625 -19.859375 20.859375 -20.890625 C 19.335938 -21.929688 17.507812 -22.453125 15.375 -22.453125 C 12.75 -22.453125 10.601562 -21.441406 8.9375 -19.421875 C 7.28125 -17.410156 6.453125 -14.816406 6.453125 -11.640625 C 6.453125 -8.472656 7.265625 -5.894531 8.890625 -3.90625 C 10.515625 -1.925781 12.609375 -0.9375 15.171875 -0.9375 C 16.554688 -0.9375 17.753906 -1.234375 18.765625 -1.828125 C 19.773438 -2.429688 20.460938 -3.238281 20.828125 -4.25 L 20.828125 -9.328125 C 20.828125 -9.816406 20.679688 -10.191406 20.390625 -10.453125 C 20.097656 -10.722656 19.6875 -10.859375 19.15625 -10.859375 L 18.609375 -10.859375 L 18.609375 -11.203125 L 28 -11.203125 L 28 -10.859375 L 27.5 -10.859375 C 26.945312 -10.859375 26.523438 -10.722656 26.234375 -10.453125 C 25.941406 -10.191406 25.804688 -9.828125 25.828125 -9.359375 L 25.828125 -4.046875 C 25.859375 -2.578125 26.140625 -1.207031 26.671875 0.0625 C 27.847656 2.78125 29.804688 4.472656 32.546875 5.140625 C 33.285156 5.328125 34.050781 5.421875 34.84375 5.421875 C 35.632812 5.421875 36.441406 5.328125 37.265625 5.140625 L 37.328125 5.484375 C 35.410156 6.242188 33.609375 6.625 31.921875 6.625 Z M 31.921875 6.625 "/></g></g></g><g fill="#000000" fill-opacity="1"><g transform="translate(599.380499, 515.579219)"><g><path d="M 10.625 -21.921875 L 9.1875 -21.921875 C 9.144531 -21.921875 9.113281 -21.921875 9.09375 -21.921875 L 9.09375 -2.4375 C 9.113281 -1.613281 9.46875 -1.003906 10.15625 -0.609375 C 10.488281 -0.421875 10.847656 -0.328125 11.234375 -0.328125 L 11.671875 -0.328125 L 11.671875 0 L 1.5 0 L 1.5 -0.328125 L 1.9375 -0.328125 C 2.738281 -0.328125 3.351562 -0.675781 3.78125 -1.375 C 3.957031 -1.6875 4.054688 -2.03125 4.078125 -2.40625 L 4.078125 -20.953125 C 4.054688 -21.535156 3.835938 -22.03125 3.421875 -22.4375 C 3.015625 -22.851562 2.519531 -23.0625 1.9375 -23.0625 L 1.5 -23.0625 L 1.5 -23.390625 L 12.96875 -23.390625 C 15.125 -23.390625 16.953125 -22.921875 18.453125 -21.984375 C 19.203125 -21.523438 19.800781 -20.875 20.25 -20.03125 C 20.695312 -19.195312 20.921875 -18.25 20.921875 -17.1875 C 20.921875 -16.132812 20.734375 -15.160156 20.359375 -14.265625 C 19.992188 -13.378906 19.382812 -12.597656 18.53125 -11.921875 C 17.675781 -11.253906 16.644531 -10.859375 15.4375 -10.734375 C 16.726562 -10.304688 17.863281 -9.320312 18.84375 -7.78125 C 21.25 -3.925781 23.035156 -1.632812 24.203125 -0.90625 C 24.773438 -0.550781 25.5 -0.359375 26.375 -0.328125 L 26.375 0 L 23.09375 0 C 21.195312 0 19.613281 -0.257812 18.34375 -0.78125 C 17.070312 -1.3125 16.035156 -2.207031 15.234375 -3.46875 C 14.835938 -4.113281 14.328125 -5.085938 13.703125 -6.390625 C 13.078125 -7.703125 12.664062 -8.632812 12.46875 -9.1875 C 11.863281 -10.53125 11.101562 -11.28125 10.1875 -11.4375 L 10.1875 -11.765625 L 11.234375 -11.765625 C 12.234375 -11.765625 13.117188 -12.0625 13.890625 -12.65625 C 14.660156 -13.257812 15.175781 -14.242188 15.4375 -15.609375 C 15.53125 -16.078125 15.578125 -16.445312 15.578125 -16.71875 C 15.578125 -18.539062 15.207031 -19.859375 14.46875 -20.671875 C 13.738281 -21.484375 12.789062 -21.898438 11.625 -21.921875 C 11.40625 -21.921875 11.070312 -21.921875 10.625 -21.921875 Z M 10.625 -21.921875 "/></g></g></g><g fill="#000000" fill-opacity="1"><g transform="translate(624.300958, 515.579219)"><g><path d="M 14.703125 -23.859375 C 18.828125 -23.859375 22.101562 -22.765625 24.53125 -20.578125 C 26.957031 -18.398438 28.171875 -15.4375 28.171875 -11.6875 C 28.171875 -7.945312 26.957031 -4.984375 24.53125 -2.796875 C 22.101562 -0.617188 18.828125 0.46875 14.703125 0.46875 C 10.578125 0.46875 7.300781 -0.617188 4.875 -2.796875 C 2.445312 -4.984375 1.234375 -7.953125 1.234375 -11.703125 C 1.234375 -14.171875 1.785156 -16.320312 2.890625 -18.15625 C 3.992188 -20 5.554688 -21.410156 7.578125 -22.390625 C 9.609375 -23.367188 11.984375 -23.859375 14.703125 -23.859375 Z M 8.875 -3.828125 C 10.3125 -1.898438 12.253906 -0.9375 14.703125 -0.9375 C 17.148438 -0.9375 19.09375 -1.898438 20.53125 -3.828125 C 21.96875 -5.753906 22.6875 -8.378906 22.6875 -11.703125 C 22.6875 -13.878906 22.363281 -15.78125 21.71875 -17.40625 C 21.070312 -19.039062 20.144531 -20.289062 18.9375 -21.15625 C 17.738281 -22.019531 16.328125 -22.453125 14.703125 -22.453125 C 12.253906 -22.453125 10.3125 -21.488281 8.875 -19.5625 C 7.4375 -17.632812 6.71875 -15.007812 6.71875 -11.6875 C 6.71875 -8.375 7.4375 -5.753906 8.875 -3.828125 Z M 8.875 -3.828125 "/></g></g></g><g fill="#000000" fill-opacity="1"><g transform="translate(653.664351, 515.579219)"><g><path d="M 26.40625 -23.0625 L 25.828125 -23.0625 C 25.367188 -23.0625 24.960938 -22.910156 24.609375 -22.609375 C 24.265625 -22.304688 24.09375 -21.929688 24.09375 -21.484375 L 24.09375 -8.453125 C 24.09375 -5.710938 23.234375 -3.539062 21.515625 -1.9375 C 19.804688 -0.332031 17.457031 0.46875 14.46875 0.46875 C 10.945312 0.46875 8.25 -0.316406 6.375 -1.890625 C 4.507812 -3.460938 3.578125 -5.640625 3.578125 -8.421875 L 3.578125 -21.390625 C 3.578125 -21.878906 3.40625 -22.28125 3.0625 -22.59375 C 2.71875 -22.90625 2.300781 -23.0625 1.8125 -23.0625 L 1.265625 -23.0625 L 1.265625 -23.390625 L 10.890625 -23.390625 L 10.890625 -23.0625 L 10.359375 -23.0625 C 9.867188 -23.0625 9.457031 -22.910156 9.125 -22.609375 C 8.789062 -22.304688 8.613281 -21.921875 8.59375 -21.453125 L 8.59375 -8.6875 C 8.59375 -6.320312 9.171875 -4.445312 10.328125 -3.0625 C 11.484375 -1.6875 13.070312 -1 15.09375 -1 C 17.125 -1 18.726562 -1.648438 19.90625 -2.953125 C 21.09375 -4.253906 21.695312 -6.019531 21.71875 -8.25 L 21.71875 -21.453125 C 21.71875 -21.921875 21.546875 -22.304688 21.203125 -22.609375 C 20.859375 -22.910156 20.441406 -23.0625 19.953125 -23.0625 L 19.421875 -23.0625 L 19.421875 -23.390625 L 26.40625 -23.390625 Z M 26.40625 -23.0625 "/></g></g></g><g fill="#000000" fill-opacity="1"><g transform="translate(681.090237, 515.579219)"><g><path d="M 20.359375 -13.796875 C 19.597656 -12.066406 18.191406 -10.863281 16.140625 -10.1875 C 15.535156 -9.988281 14.976562 -9.890625 14.46875 -9.890625 C 12.882812 -9.890625 11.472656 -10.300781 10.234375 -11.125 L 10.234375 -11.46875 C 11.898438 -11.414062 13.242188 -11.957031 14.265625 -13.09375 C 15.179688 -14.082031 15.640625 -15.363281 15.640625 -16.9375 C 15.640625 -19.375 14.789062 -20.945312 13.09375 -21.65625 C 12.5625 -21.875 11.972656 -21.984375 11.328125 -21.984375 L 9.09375 -21.984375 L 9.09375 -2.4375 C 9.09375 -1.863281 9.300781 -1.367188 9.71875 -0.953125 C 10.144531 -0.535156 10.648438 -0.328125 11.234375 -0.328125 L 11.671875 -0.328125 L 11.671875 0 L 1.5 0 L 1.5 -0.328125 L 1.9375 -0.328125 C 2.519531 -0.328125 3.015625 -0.535156 3.421875 -0.953125 C 3.835938 -1.367188 4.054688 -1.863281 4.078125 -2.4375 L 4.078125 -21.125 C 3.984375 -21.882812 3.601562 -22.441406 2.9375 -22.796875 C 2.625 -22.972656 2.289062 -23.0625 1.9375 -23.0625 L 1.5 -23.0625 L 1.5 -23.390625 L 12.671875 -23.390625 C 16.703125 -23.390625 19.285156 -22.109375 20.421875 -19.546875 C 20.773438 -18.703125 20.953125 -17.757812 20.953125 -16.71875 C 20.953125 -15.6875 20.753906 -14.710938 20.359375 -13.796875 Z M 20.359375 -13.796875 "/></g></g></g><g fill="#000000" fill-opacity="1"><g transform="translate(346.277921, 562.257914)"><g><path d="M 8.328125 -18.890625 C 10.660156 -18.890625 12.554688 -18.410156 14.015625 -17.453125 C 15.472656 -16.492188 16.203125 -15.179688 16.203125 -13.515625 C 16.203125 -12.234375 15.726562 -11.007812 14.78125 -9.84375 C 14.082031 -8.96875 13.453125 -8.304688 12.890625 -7.859375 C 12.335938 -7.410156 11.914062 -7.066406 11.625 -6.828125 C 11.332031 -6.597656 10.921875 -6.304688 10.390625 -5.953125 C 9.859375 -5.609375 9.476562 -5.359375 9.25 -5.203125 C 9.019531 -5.054688 8.640625 -4.820312 8.109375 -4.5 C 7.585938 -4.175781 7.269531 -3.972656 7.15625 -3.890625 L 13.390625 -3.890625 C 14.273438 -3.890625 15.015625 -4.09375 15.609375 -4.5 C 16.203125 -4.914062 16.769531 -5.597656 17.3125 -6.546875 L 17.625 -6.546875 L 15.8125 0 L 1.328125 0 L 1.328125 -0.265625 C 1.828125 -0.796875 2.535156 -1.515625 3.453125 -2.421875 C 4.367188 -3.335938 5.132812 -4.109375 5.75 -4.734375 C 6.363281 -5.359375 7.054688 -6.113281 7.828125 -7 C 8.597656 -7.882812 9.21875 -8.679688 9.6875 -9.390625 C 10.8125 -11.078125 11.375 -12.554688 11.375 -13.828125 C 11.375 -15.109375 11.023438 -16.070312 10.328125 -16.71875 C 9.640625 -17.375 8.742188 -17.703125 7.640625 -17.703125 C 6.148438 -17.703125 5.023438 -17.242188 4.265625 -16.328125 C 3.515625 -15.421875 3.140625 -14.171875 3.140625 -12.578125 L 2.84375 -12.578125 L 1.421875 -16.921875 C 2.160156 -17.523438 3.164062 -18.003906 4.4375 -18.359375 C 5.71875 -18.710938 7.015625 -18.890625 8.328125 -18.890625 Z M 8.328125 -18.890625 "/></g></g></g><g fill="#000000" fill-opacity="1"><g transform="translate(364.865367, 562.257914)"><g><path d="M 3.75 -15.96875 C 5.375 -17.675781 7.582031 -18.53125 10.375 -18.53125 C 13.175781 -18.53125 15.382812 -17.675781 17 -15.96875 C 18.625 -14.269531 19.4375 -11.960938 19.4375 -9.046875 C 19.4375 -6.128906 18.625 -3.820312 17 -2.125 C 15.382812 -0.425781 13.175781 0.421875 10.375 0.421875 C 8.53125 0.421875 6.921875 0.0390625 5.546875 -0.71875 C 4.179688 -1.488281 3.132812 -2.585938 2.40625 -4.015625 C 1.6875 -5.441406 1.328125 -7.117188 1.328125 -9.046875 C 1.328125 -11.960938 2.132812 -14.269531 3.75 -15.96875 Z M 12.703125 -16.265625 C 12.035156 -16.929688 11.257812 -17.265625 10.375 -17.265625 C 9.488281 -17.265625 8.71875 -16.929688 8.0625 -16.265625 C 6.6875 -14.898438 6 -12.492188 6 -9.046875 C 6 -6.515625 6.390625 -4.515625 7.171875 -3.046875 C 7.960938 -1.578125 9.03125 -0.84375 10.375 -0.84375 C 11.726562 -0.84375 12.800781 -1.578125 13.59375 -3.046875 C 14.382812 -4.515625 14.78125 -6.515625 14.78125 -9.046875 C 14.78125 -12.492188 14.085938 -14.898438 12.703125 -16.265625 Z M 12.703125 -16.265625 "/></g></g></g><g fill="#000000" fill-opacity="1"><g transform="translate(385.62537, 562.257914)"><g><path d="M 3.5 -0.8125 C 2.769531 -1.238281 2.195312 -1.804688 1.78125 -2.515625 C 1.375 -3.234375 1.171875 -4.054688 1.171875 -4.984375 C 1.171875 -7.367188 2.617188 -9.109375 5.515625 -10.203125 C 3.429688 -11.722656 2.390625 -13.5625 2.390625 -15.71875 C 2.390625 -17.46875 3 -18.875 4.21875 -19.9375 C 5.46875 -21.007812 7.050781 -21.546875 8.96875 -21.546875 C 10.894531 -21.546875 12.492188 -21.078125 13.765625 -20.140625 C 15.046875 -19.203125 15.6875 -17.96875 15.6875 -16.4375 C 15.6875 -15.695312 15.503906 -15.015625 15.140625 -14.390625 C 14.484375 -13.222656 13.347656 -12.421875 11.734375 -11.984375 C 13.179688 -11.234375 14.082031 -10.71875 14.4375 -10.4375 C 14.789062 -10.15625 15.113281 -9.882812 15.40625 -9.625 C 15.695312 -9.363281 15.921875 -9.101562 16.078125 -8.84375 C 16.242188 -8.582031 16.40625 -8.289062 16.5625 -7.96875 C 16.863281 -7.363281 17.015625 -6.617188 17.015625 -5.734375 C 17.015625 -3.804688 16.265625 -2.296875 14.765625 -1.203125 C 13.265625 -0.117188 11.367188 0.421875 9.078125 0.421875 C 6.785156 0.421875 4.925781 0.0078125 3.5 -0.8125 Z M 10.4375 -12.640625 C 11.320312 -13.628906 11.765625 -14.96875 11.765625 -16.65625 C 11.765625 -17.738281 11.515625 -18.601562 11.015625 -19.25 C 10.492188 -19.914062 9.804688 -20.25 8.953125 -20.25 C 8.109375 -20.25 7.453125 -19.96875 6.984375 -19.40625 C 6.515625 -18.84375 6.28125 -18.117188 6.28125 -17.234375 C 6.28125 -16.347656 6.570312 -15.582031 7.15625 -14.9375 C 7.757812 -14.269531 8.851562 -13.503906 10.4375 -12.640625 Z M 8.953125 -0.84375 C 10.109375 -0.84375 11.03125 -1.148438 11.71875 -1.765625 C 12.414062 -2.378906 12.765625 -3.15625 12.765625 -4.09375 C 12.765625 -5.039062 12.414062 -5.820312 11.71875 -6.4375 C 11.03125 -7.050781 10.109375 -7.65625 8.953125 -8.25 C 7.804688 -8.84375 7.023438 -9.257812 6.609375 -9.5 C 5.640625 -8.476562 5.15625 -7.203125 5.15625 -5.671875 C 5.15625 -4.140625 5.476562 -2.960938 6.125 -2.140625 C 6.851562 -1.273438 7.796875 -0.84375 8.953125 -0.84375 Z M 8.953125 -0.84375 "/></g></g></g><g fill="#000000" fill-opacity="1"><g transform="translate(403.820541, 562.257914)"><g><path d="M 8.328125 -18.890625 C 10.660156 -18.890625 12.554688 -18.410156 14.015625 -17.453125 C 15.472656 -16.492188 16.203125 -15.179688 16.203125 -13.515625 C 16.203125 -12.234375 15.726562 -11.007812 14.78125 -9.84375 C 14.082031 -8.96875 13.453125 -8.304688 12.890625 -7.859375 C 12.335938 -7.410156 11.914062 -7.066406 11.625 -6.828125 C 11.332031 -6.597656 10.921875 -6.304688 10.390625 -5.953125 C 9.859375 -5.609375 9.476562 -5.359375 9.25 -5.203125 C 9.019531 -5.054688 8.640625 -4.820312 8.109375 -4.5 C 7.585938 -4.175781 7.269531 -3.972656 7.15625 -3.890625 L 13.390625 -3.890625 C 14.273438 -3.890625 15.015625 -4.09375 15.609375 -4.5 C 16.203125 -4.914062 16.769531 -5.597656 17.3125 -6.546875 L 17.625 -6.546875 L 15.8125 0 L 1.328125 0 L 1.328125 -0.265625 C 1.828125 -0.796875 2.535156 -1.515625 3.453125 -2.421875 C 4.367188 -3.335938 5.132812 -4.109375 5.75 -4.734375 C 6.363281 -5.359375 7.054688 -6.113281 7.828125 -7 C 8.597656 -7.882812 9.21875 -8.679688 9.6875 -9.390625 C 10.8125 -11.078125 11.375 -12.554688 11.375 -13.828125 C 11.375 -15.109375 11.023438 -16.070312 10.328125 -16.71875 C 9.640625 -17.375 8.742188 -17.703125 7.640625 -17.703125 C 6.148438 -17.703125 5.023438 -17.242188 4.265625 -16.328125 C 3.515625 -15.421875 3.140625 -14.171875 3.140625 -12.578125 L 2.84375 -12.578125 L 1.421875 -16.921875 C 2.160156 -17.523438 3.164062 -18.003906 4.4375 -18.359375 C 5.71875 -18.710938 7.015625 -18.890625 8.328125 -18.890625 Z M 8.328125 -18.890625 "/></g></g></g><g fill="#000000" fill-opacity="1"><g transform="translate(422.407987, 562.257914)"><g/></g></g><g fill="#000000" fill-opacity="1"><g transform="translate(429.951585, 562.257914)"><g><path d="M 10.828125 0 L 1.265625 0 L 1.265625 -0.296875 L 1.65625 -0.296875 C 2.175781 -0.296875 2.625 -0.476562 3 -0.84375 C 3.375 -1.207031 3.570312 -1.648438 3.59375 -2.171875 L 3.59375 -18.953125 C 3.570312 -19.472656 3.375 -19.910156 3 -20.265625 C 2.625 -20.628906 2.175781 -20.8125 1.65625 -20.8125 L 1.265625 -20.8125 L 1.265625 -21.125 L 10.015625 -21.125 C 12.347656 -21.125 14.203125 -20.695312 15.578125 -19.84375 C 16.960938 -19 17.664062 -17.703125 17.6875 -15.953125 C 17.664062 -15.078125 17.472656 -14.304688 17.109375 -13.640625 C 16.441406 -12.390625 15.394531 -11.675781 13.96875 -11.5 C 15.519531 -11.351562 16.796875 -10.769531 17.796875 -9.75 C 18.804688 -8.738281 19.3125 -7.453125 19.3125 -5.890625 C 19.3125 -3.992188 18.550781 -2.535156 17.03125 -1.515625 C 15.507812 -0.503906 13.441406 0 10.828125 0 Z M 12.859375 -15.5625 C 12.835938 -18.40625 11.546875 -19.828125 8.984375 -19.828125 L 8.109375 -19.828125 L 8.109375 -1.390625 L 9.5 -1.390625 C 9.519531 -1.390625 9.539062 -1.390625 9.5625 -1.390625 C 10.945312 -1.390625 12.050781 -1.789062 12.875 -2.59375 C 13.707031 -3.394531 14.125 -4.613281 14.125 -6.25 C 14.125 -7.394531 13.890625 -8.335938 13.421875 -9.078125 C 12.554688 -10.460938 11.128906 -11.15625 9.140625 -11.15625 L 9.140625 -11.4375 C 10.191406 -11.4375 11.066406 -11.769531 11.765625 -12.4375 C 12.472656 -13.113281 12.835938 -14.15625 12.859375 -15.5625 Z M 12.859375 -15.5625 "/></g></g></g><g fill="#000000" fill-opacity="1"><g transform="translate(450.258971, 562.257914)"><g><path d="M 4.890625 -0.328125 C 4.460938 0.0859375 3.945312 0.296875 3.34375 0.296875 C 2.738281 0.296875 2.222656 0.0859375 1.796875 -0.328125 C 1.378906 -0.753906 1.171875 -1.269531 1.171875 -1.875 C 1.171875 -2.476562 1.378906 -2.992188 1.796875 -3.421875 C 2.222656 -3.859375 2.738281 -4.078125 3.34375 -4.078125 C 3.945312 -4.078125 4.460938 -3.859375 4.890625 -3.421875 C 5.328125 -2.992188 5.546875 -2.476562 5.546875 -1.875 C 5.546875 -1.269531 5.328125 -0.753906 4.890625 -0.328125 Z M 4.890625 -0.328125 "/></g></g></g><g fill="#000000" fill-opacity="1"><g transform="translate(456.957692, 562.257914)"><g><path d="M 2.84375 -8.5625 C 2.03125 -7.28125 1.625 -5.960938 1.625 -4.609375 C 1.625 -3.140625 2.160156 -1.804688 3.234375 -0.609375 C 3.816406 0.078125 4.550781 0.609375 5.4375 0.984375 C 6.332031 1.367188 7.3125 1.5625 8.375 1.5625 C 9.445312 1.5625 10.40625 1.363281 11.25 0.96875 C 12.9375 0.144531 13.78125 -1.203125 13.78125 -3.078125 C 13.78125 -3.785156 13.546875 -4.53125 13.078125 -5.3125 C 12.609375 -6.09375 11.898438 -6.796875 10.953125 -7.421875 L 5.828125 -10.859375 C 3.835938 -12.109375 2.84375 -13.71875 2.84375 -15.6875 C 2.84375 -15.882812 2.847656 -16.085938 2.859375 -16.296875 C 2.984375 -17.835938 3.601562 -19.097656 4.71875 -20.078125 C 5.832031 -21.054688 7.328125 -21.546875 9.203125 -21.546875 C 10.347656 -21.546875 11.734375 -21.441406 13.359375 -21.234375 L 15.234375 -21.234375 L 14.84375 -16.8125 L 14.578125 -16.8125 C 14.554688 -17.851562 14.148438 -18.691406 13.359375 -19.328125 C 12.578125 -19.960938 11.546875 -20.28125 10.265625 -20.28125 C 8.691406 -20.28125 7.550781 -19.804688 6.84375 -18.859375 C 6.507812 -18.378906 6.34375 -17.851562 6.34375 -17.28125 C 6.34375 -16.71875 6.507812 -16.238281 6.84375 -15.84375 C 7.1875 -15.457031 7.734375 -15.035156 8.484375 -14.578125 L 14.125 -10.890625 C 15.269531 -10.148438 16.164062 -9.273438 16.8125 -8.265625 C 17.570312 -7.078125 17.953125 -5.859375 17.953125 -4.609375 C 17.953125 -3.804688 17.785156 -2.957031 17.453125 -2.0625 C 17.117188 -1.164062 16.570312 -0.335938 15.8125 0.421875 C 15.0625 1.179688 14.09375 1.800781 12.90625 2.28125 C 11.726562 2.769531 10.414062 3.015625 8.96875 3.015625 C 7.53125 3.015625 6.226562 2.765625 5.0625 2.265625 C 2.914062 1.359375 1.550781 -0.21875 0.96875 -2.46875 C 0.84375 -2.957031 0.78125 -3.460938 0.78125 -3.984375 C 0.78125 -5.671875 1.375 -7.269531 2.5625 -8.78125 Z M 2.84375 -8.5625 "/></g></g></g><g fill="#000000" fill-opacity="1"><g transform="translate(475.756345, 562.257914)"><g><path d="M 4.890625 -0.328125 C 4.460938 0.0859375 3.945312 0.296875 3.34375 0.296875 C 2.738281 0.296875 2.222656 0.0859375 1.796875 -0.328125 C 1.378906 -0.753906 1.171875 -1.269531 1.171875 -1.875 C 1.171875 -2.476562 1.378906 -2.992188 1.796875 -3.421875 C 2.222656 -3.859375 2.738281 -4.078125 3.34375 -4.078125 C 3.945312 -4.078125 4.460938 -3.859375 4.890625 -3.421875 C 5.328125 -2.992188 5.546875 -2.476562 5.546875 -1.875 C 5.546875 -1.269531 5.328125 -0.753906 4.890625 -0.328125 Z M 4.890625 -0.328125 "/></g></g></g></svg>